<svg xmlns="http://www.w3.org/2000/svg" xmlns:xlink="http://www.w3.org/1999/xlink" width="845" height="1649" contentScriptType="application/ecmascript" contentStyleType="text/css" preserveAspectRatio="none" version="1.1" viewBox="0 0 845 1649" zoomAndPan="magnify" style="width:845px;height:1649px"><defs><filter id="f19z277fa1pxys" width="300%" height="300%" x="-1" y="-1"><feGaussianBlur result="blurOut" stdDeviation="2"/><feColorMatrix in="blurOut" result="blurOut2" type="matrix" values="0 0 0 0 0 0 0 0 0 0 0 0 0 0 0 0 0 0 .4 0"/><feOffset dx="4" dy="4" in="blurOut2" result="blurOut3"/><feBlend in="SourceGraphic" in2="blurOut3" mode="normal"/></filter></defs><g><text x="390" y="26.277" fill="#000" font-family="sans-serif" font-size="18" lengthAdjust="spacingAndGlyphs" textLength="63">APIView</text><rect width="62" height="32.633" x="384" y="28.949" fill="#FEFECE" stroke="#A80036" stroke-width="1.5" filter="url(#f19z277fa1pxys)" rx="12.5" ry="12.5"/><text x="394" y="49.801" fill="#000" font-family="sans-serif" font-size="12" lengthAdjust="spacingAndGlyphs" textLength="42">Request</text><line x1="286" x2="535" y1="81.582" y2="81.582" stroke="#A80036" stroke-width="1.5"/><rect width="44" height="32.633" x="264" y="101.582" fill="#FEFECE" stroke="#A80036" stroke-width="1.5" filter="url(#f19z277fa1pxys)" rx="12.5" ry="12.5"/><text x="280" y="122.434" fill="#000" font-family="sans-serif" font-size="12" lengthAdjust="spacingAndGlyphs" textLength="18">get</text><rect width="50" height="32.633" x="336" y="101.582" fill="#FEFECE" stroke="#A80036" stroke-width="1.5" filter="url(#f19z277fa1pxys)" rx="12.5" ry="12.5"/><text x="352" y="122.434" fill="#000" font-family="sans-serif" font-size="12" lengthAdjust="spacingAndGlyphs" textLength="24">post</text><rect width="62" height="32.633" x="414" y="101.582" fill="#FEFECE" stroke="#A80036" stroke-width="1.5" filter="url(#f19z277fa1pxys)" rx="12.5" ry="12.5"/><text x="430" y="122.434" fill="#000" font-family="sans-serif" font-size="12" lengthAdjust="spacingAndGlyphs" textLength="36">update</text><rect width="62" height="32.633" x="504" y="101.582" fill="#FEFECE" stroke="#A80036" stroke-width="1.5" filter="url(#f19z277fa1pxys)" rx="12.5" ry="12.5"/><text x="520" y="122.434" fill="#000" font-family="sans-serif" font-size="12" lengthAdjust="spacingAndGlyphs" textLength="36">delete</text><line x1="286" x2="535" y1="154.215" y2="154.215" stroke="#A80036" stroke-width="1.5"/><rect width="50" height="32.633" x="390" y="174.215" fill="#FEFECE" stroke="#A80036" stroke-width="1.5" filter="url(#f19z277fa1pxys)" rx="12.5" ry="12.5"/><text x="406" y="195.066" fill="#000" font-family="sans-serif" font-size="12" lengthAdjust="spacingAndGlyphs" textLength="24">wsgi</text><rect width="62" height="32.633" x="384" y="226.848" fill="#FEFECE" stroke="#A80036" stroke-width="1.5" filter="url(#f19z277fa1pxys)" rx="12.5" ry="12.5"/><text x="394" y="247.699" fill="#000" font-family="sans-serif" font-size="12" lengthAdjust="spacingAndGlyphs" textLength="42">url路由</text><rect width="152" height="32.633" x="339" y="279.481" fill="#FEFECE" stroke="#A80036" stroke-width="1.5" filter="url(#f19z277fa1pxys)" rx="12.5" ry="12.5"/><text x="355" y="300.332" fill="#000" font-family="sans-serif" font-size="12" lengthAdjust="spacingAndGlyphs" textLength="126">继承自APIView的类视图</text><path fill="#FBFB77" stroke="#A80036" stroke-width="1" d="M469,336.5869 L469,344.4297 L449,348.4297 L469,352.4297 L469,360.2725 A0,0 0 0 0 469,360.2725 L553,360.2725 A0,0 0 0 0 553,360.2725 L553,346.5869 L543,336.5869 L469,336.5869 A0,0 0 0 0 469,336.5869" filter="url(#f19z277fa1pxys)"/><path fill="#FBFB77" stroke="#A80036" stroke-width="1" d="M543,336.5869 L543,346.5869 L553,346.5869 L543,336.5869"/><text x="475" y="353.343" fill="#000" font-family="sans-serif" font-size="13" lengthAdjust="spacingAndGlyphs" textLength="63">继承自view</text><rect width="68" height="32.633" x="381" y="332.113" fill="#FEFECE" stroke="#A80036" stroke-width="1.5" filter="url(#f19z277fa1pxys)" rx="12.5" ry="12.5"/><text x="397" y="352.965" fill="#000" font-family="sans-serif" font-size="12" lengthAdjust="spacingAndGlyphs" textLength="42">as_view</text><rect width="110" height="32.633" x="360" y="384.746" fill="#FEFECE" stroke="#A80036" stroke-width="1.5" filter="url(#f19z277fa1pxys)" rx="12.5" ry="12.5"/><text x="370" y="405.598" fill="#000" font-family="sans-serif" font-size="12" lengthAdjust="spacingAndGlyphs" textLength="90">check_arguement</text><path fill="#FBFB77" stroke="#A80036" stroke-width="1" d="M233,441.8525 L233,465.5381 A0,0 0 0 0 233,465.5381 L361,465.5381 A0,0 0 0 0 361,465.5381 L361,459.8525 L381,453.6953 L361,451.8525 L361,451.8525 L351,441.8525 L233,441.8525 A0,0 0 0 0 233,441.8525" filter="url(#f19z277fa1pxys)"/><path fill="#FBFB77" stroke="#A80036" stroke-width="1" d="M351,441.8525 L351,451.8525 L361,451.8525 L351,441.8525"/><text x="239" y="458.608" fill="#000" font-family="sans-serif" font-size="13" lengthAdjust="spacingAndGlyphs" textLength="107">调用APIView自己的</text><rect width="68" height="32.633" x="381" y="437.379" fill="#FEFECE" stroke="#A80036" stroke-width="1.5" filter="url(#f19z277fa1pxys)" rx="12.5" ry="12.5"/><text x="391" y="458.231" fill="#000" font-family="sans-serif" font-size="12" lengthAdjust="spacingAndGlyphs" textLength="48">dispatch</text><path fill="#FBFB77" stroke="#A80036" stroke-width="1" d="M499,494.4854 L499,518.1709 L614,518.1709 L614,504.4854 L604,494.4854 L499,494.4854" filter="url(#f19z277fa1pxys)"/><path fill="#FBFB77" stroke="#A80036" stroke-width="1" d="M604,494.4854 L604,504.4854 L614,504.4854 L604,494.4854"/><text x="505" y="511.241" fill="#000" font-family="sans-serif" font-size="13" lengthAdjust="spacingAndGlyphs" textLength="94">重新封装request</text><rect width="128" height="32.633" x="351" y="490.012" fill="#FEFECE" stroke="#A80036" stroke-width="1.5" filter="url(#f19z277fa1pxys)" rx="12.5" ry="12.5"/><text x="361" y="510.863" fill="#000" font-family="sans-serif" font-size="12" lengthAdjust="spacingAndGlyphs" textLength="108">initialize_request</text><rect width="62" height="32.633" x="384" y="542.644" fill="#FEFECE" stroke="#A80036" stroke-width="1.5" filter="url(#f19z277fa1pxys)" rx="12.5" ry="12.5"/><text x="394" y="563.496" fill="#000" font-family="sans-serif" font-size="12" lengthAdjust="spacingAndGlyphs" textLength="42">initial</text><line x1="127" x2="691" y1="595.277" y2="595.277" stroke="#A80036" stroke-width="1.5"/><rect width="68" height="32.633" x="93" y="615.277" fill="#FEFECE" stroke="#A80036" stroke-width="1.5" filter="url(#f19z277fa1pxys)" rx="12.5" ry="12.5"/><text x="103" y="636.129" fill="#000" font-family="sans-serif" font-size="12" lengthAdjust="spacingAndGlyphs" textLength="48">检查后缀</text><rect width="44" height="32.633" x="105" y="682.91" fill="#FEFECE" stroke="#A80036" stroke-width="1.5" filter="url(#f19z277fa1pxys)" rx="12.5" ry="12.5"/><text x="115" y="703.762" fill="#000" font-family="sans-serif" font-size="12" lengthAdjust="spacingAndGlyphs" textLength="24">预设</text><rect width="68" height="32.633" x="189" y="649.094" fill="#FEFECE" stroke="#A80036" stroke-width="1.5" filter="url(#f19z277fa1pxys)" rx="12.5" ry="12.5"/><text x="199" y="669.945" fill="#000" font-family="sans-serif" font-size="12" lengthAdjust="spacingAndGlyphs" textLength="48">内容决策</text><rect width="68" height="32.633" x="297" y="615.277" fill="#FEFECE" stroke="#A80036" stroke-width="1.5" filter="url(#f19z277fa1pxys)" rx="12.5" ry="12.5"/><text x="307" y="636.129" fill="#000" font-family="sans-serif" font-size="12" lengthAdjust="spacingAndGlyphs" textLength="48">版本决策</text><rect width="92" height="32.633" x="285" y="682.91" fill="#FEFECE" stroke="#A80036" stroke-width="1.5" filter="url(#f19z277fa1pxys)" rx="12.5" ry="12.5"/><text x="295" y="703.762" fill="#000" font-family="sans-serif" font-size="12" lengthAdjust="spacingAndGlyphs" textLength="72">检查版本更新</text><rect width="68" height="32.633" x="417" y="615.277" fill="#FEFECE" stroke="#A80036" stroke-width="1.5" filter="url(#f19z277fa1pxys)" rx="12.5" ry="12.5"/><text x="427" y="636.129" fill="#000" font-family="sans-serif" font-size="12" lengthAdjust="spacingAndGlyphs" textLength="48">执行认证</text><rect width="92" height="32.633" x="405" y="682.91" fill="#FEFECE" stroke="#A80036" stroke-width="1.5" filter="url(#f19z277fa1pxys)" rx="12.5" ry="12.5"/><text x="415" y="703.762" fill="#000" font-family="sans-serif" font-size="12" lengthAdjust="spacingAndGlyphs" textLength="72">重写认证规则</text><rect width="68" height="32.633" x="537" y="615.277" fill="#FEFECE" stroke="#A80036" stroke-width="1.5" filter="url(#f19z277fa1pxys)" rx="12.5" ry="12.5"/><text x="547" y="636.129" fill="#000" font-family="sans-serif" font-size="12" lengthAdjust="spacingAndGlyphs" textLength="48">检查权限</text><rect width="92" height="32.633" x="525" y="682.91" fill="#FEFECE" stroke="#A80036" stroke-width="1.5" filter="url(#f19z277fa1pxys)" rx="12.5" ry="12.5"/><text x="535" y="703.762" fill="#000" font-family="sans-serif" font-size="12" lengthAdjust="spacingAndGlyphs" textLength="72">重写权限规则</text><rect width="44" height="32.633" x="669" y="615.277" fill="#FEFECE" stroke="#A80036" stroke-width="1.5" filter="url(#f19z277fa1pxys)" rx="12.5" ry="12.5"/><text x="679" y="636.129" fill="#000" font-family="sans-serif" font-size="12" lengthAdjust="spacingAndGlyphs" textLength="24">节流</text><rect width="92" height="32.633" x="645" y="682.91" fill="#FEFECE" stroke="#A80036" stroke-width="1.5" filter="url(#f19z277fa1pxys)" rx="12.5" ry="12.5"/><text x="655" y="703.762" fill="#000" font-family="sans-serif" font-size="12" lengthAdjust="spacingAndGlyphs" textLength="72">定义节流规则</text><line x1="127" x2="691" y1="735.543" y2="735.543" stroke="#A80036" stroke-width="1.5"/><rect width="44" height="32.633" x="393" y="755.543" fill="#FEFECE" stroke="#A80036" stroke-width="1.5" filter="url(#f19z277fa1pxys)" rx="12.5" ry="12.5"/><text x="403" y="776.394" fill="#000" font-family="sans-serif" font-size="12" lengthAdjust="spacingAndGlyphs" textLength="24">分发</text><line x1="179" x2="779" y1="808.176" y2="808.176" stroke="#A80036" stroke-width="1.5"/><line x1="122" x2="248" y1="828.176" y2="828.176" stroke="#A80036" stroke-width="1.5"/><rect width="110" height="32.633" x="67" y="848.176" fill="#FF0" stroke="#A80036" stroke-width="1.5" filter="url(#f19z277fa1pxys)" rx="12.5" ry="12.5"/><text x="77" y="869.027" fill="#000" font-family="sans-serif" font-size="12" lengthAdjust="spacingAndGlyphs" textLength="90">RetrieveAPIView</text><rect width="86" height="32.633" x="205" y="848.176" fill="#FF0" stroke="#A80036" stroke-width="1.5" filter="url(#f19z277fa1pxys)" rx="12.5" ry="12.5"/><text x="215" y="869.027" fill="#000" font-family="sans-serif" font-size="12" lengthAdjust="spacingAndGlyphs" textLength="66">ListAPIView</text><line x1="122" x2="248" y1="900.809" y2="900.809" stroke="#A80036" stroke-width="1.5"/><rect width="38" height="32.633" x="160" y="922.309" fill="#FEFECE" stroke="#A80036" stroke-width="1.5" filter="url(#f19z277fa1pxys)" rx="12.5" ry="12.5"/><text x="170" y="943.16" fill="#000" font-family="sans-serif" font-size="12" lengthAdjust="spacingAndGlyphs" textLength="18">get</text><line x1="104" x2="227" y1="989.941" y2="989.941" stroke="#A80036" stroke-width="1.5"/><rect width="68" height="32.633" x="70" y="1045.258" fill="#FEFECE" stroke="#A80036" stroke-width="1.5" filter="url(#f19z277fa1pxys)" rx="12.5" ry="12.5"/><text x="80" y="1066.109" fill="#000" font-family="sans-serif" font-size="12" lengthAdjust="spacingAndGlyphs" textLength="48">retrieve</text><rect width="44" height="32.633" x="205" y="1011.441" fill="#FEFECE" stroke="#A80036" stroke-width="1.5" filter="url(#f19z277fa1pxys)" rx="12.5" ry="12.5"/><text x="215" y="1032.293" fill="#000" font-family="sans-serif" font-size="12" lengthAdjust="spacingAndGlyphs" textLength="24">list</text><rect width="122" height="32.633" x="166" y="1079.074" fill="#FEFECE" stroke="#A80036" stroke-width="1.5" filter="url(#f19z277fa1pxys)" rx="12.5" ry="12.5"/><text x="176" y="1099.926" fill="#000" font-family="sans-serif" font-size="12" lengthAdjust="spacingAndGlyphs" textLength="102">paginate_queryset</text><line x1="104" x2="227" y1="1131.707" y2="1131.707" stroke="#A80036" stroke-width="1.5"/><rect width="80" height="32.633" x="139" y="1168.207" fill="#FEFECE" stroke="#A80036" stroke-width="1.5" filter="url(#f19z277fa1pxys)" rx="12.5" ry="12.5"/><text x="149" y="1189.059" fill="#000" font-family="sans-serif" font-size="12" lengthAdjust="spacingAndGlyphs" textLength="60">get object</text><rect width="92" height="32.633" x="133" y="1235.84" fill="#FEFECE" stroke="#A80036" stroke-width="1.5" filter="url(#f19z277fa1pxys)" rx="12.5" ry="12.5"/><text x="143" y="1256.691" fill="#000" font-family="sans-serif" font-size="12" lengthAdjust="spacingAndGlyphs" textLength="72">get_queryset</text><line x1="89" x2="272" y1="1303.473" y2="1303.473" stroke="#A80036" stroke-width="1.5"/><rect width="110" height="32.633" x="34" y="1358.789" fill="#FEFECE" stroke="#A80036" stroke-width="1.5" filter="url(#f19z277fa1pxys)" rx="12.5" ry="12.5"/><text x="44" y="1379.641" fill="#000" font-family="sans-serif" font-size="12" lengthAdjust="spacingAndGlyphs" textLength="90">filter_queryset</text><rect width="158" height="32.633" x="10" y="1426.422" fill="#FEFECE" stroke="#A80036" stroke-width="1.5" filter="url(#f19z277fa1pxys)" rx="12.5" ry="12.5"/><text x="20" y="1447.273" fill="#000" font-family="sans-serif" font-size="12" lengthAdjust="spacingAndGlyphs" textLength="138">check_object_permission</text><rect width="104" height="32.633" x="220" y="1324.973" fill="#FEFECE" stroke="#A80036" stroke-width="1.5" filter="url(#f19z277fa1pxys)" rx="12.5" ry="12.5"/><text x="230" y="1345.824" fill="#000" font-family="sans-serif" font-size="12" lengthAdjust="spacingAndGlyphs" textLength="84">get_serializer</text><rect width="140" height="32.633" x="202" y="1392.605" fill="#FEFECE" stroke="#A80036" stroke-width="1.5" filter="url(#f19z277fa1pxys)" rx="12.5" ry="12.5"/><text x="212" y="1413.457" fill="#000" font-family="sans-serif" font-size="12" lengthAdjust="spacingAndGlyphs" textLength="120">get_serializer_class</text><rect width="152" height="32.633" x="196" y="1460.238" fill="#FEFECE" stroke="#A80036" stroke-width="1.5" filter="url(#f19z277fa1pxys)" rx="12.5" ry="12.5"/><text x="206" y="1481.09" fill="#000" font-family="sans-serif" font-size="12" lengthAdjust="spacingAndGlyphs" textLength="132">get_serializer_context</text><line x1="89" x2="272" y1="1512.871" y2="1512.871" stroke="#A80036" stroke-width="1.5"/><rect width="98" height="32.633" x="408" y="943.809" fill="#FF0" stroke="#A80036" stroke-width="1.5" filter="url(#f19z277fa1pxys)" rx="12.5" ry="12.5"/><text x="418" y="964.66" fill="#000" font-family="sans-serif" font-size="12" lengthAdjust="spacingAndGlyphs" textLength="78">CreateAPIView</text><rect width="44" height="32.633" x="435" y="1011.441" fill="#FEFECE" stroke="#A80036" stroke-width="1.5" filter="url(#f19z277fa1pxys)" rx="12.5" ry="12.5"/><text x="445" y="1032.293" fill="#000" font-family="sans-serif" font-size="12" lengthAdjust="spacingAndGlyphs" textLength="24">post</text><rect width="56" height="32.633" x="429" y="1079.074" fill="#FEFECE" stroke="#A80036" stroke-width="1.5" filter="url(#f19z277fa1pxys)" rx="12.5" ry="12.5"/><text x="439" y="1099.926" fill="#000" font-family="sans-serif" font-size="12" lengthAdjust="spacingAndGlyphs" textLength="36">create</text><rect width="104" height="32.633" x="405" y="1146.707" fill="#FEFECE" stroke="#A80036" stroke-width="1.5" filter="url(#f19z277fa1pxys)" rx="12.5" ry="12.5"/><text x="415" y="1167.559" fill="#000" font-family="sans-serif" font-size="12" lengthAdjust="spacingAndGlyphs" textLength="84">get_serializer</text><rect width="104" height="32.633" x="405" y="1214.34" fill="#FEFECE" stroke="#A80036" stroke-width="1.5" filter="url(#f19z277fa1pxys)" rx="12.5" ry="12.5"/><text x="415" y="1235.191" fill="#000" font-family="sans-serif" font-size="12" lengthAdjust="spacingAndGlyphs" textLength="84">perform_create</text><rect width="44" height="32.633" x="435" y="1281.973" fill="#FEFECE" stroke="#A80036" stroke-width="1.5" filter="url(#f19z277fa1pxys)" rx="12.5" ry="12.5"/><text x="445" y="1302.824" fill="#000" font-family="sans-serif" font-size="12" lengthAdjust="spacingAndGlyphs" textLength="24">save</text><rect width="134" height="32.633" x="390" y="1349.605" fill="#FEFECE" stroke="#A80036" stroke-width="1.5" filter="url(#f19z277fa1pxys)" rx="12.5" ry="12.5"/><text x="400" y="1370.457" fill="#000" font-family="sans-serif" font-size="12" lengthAdjust="spacingAndGlyphs" textLength="114">get_success_headers</text><rect width="98" height="32.633" x="575" y="869.676" fill="#FF0" stroke="#A80036" stroke-width="1.5" filter="url(#f19z277fa1pxys)" rx="12.5" ry="12.5"/><text x="585" y="890.527" fill="#000" font-family="sans-serif" font-size="12" lengthAdjust="spacingAndGlyphs" textLength="78">UpdateAPIView</text><rect width="56" height="32.633" x="596" y="922.309" fill="#FEFECE" stroke="#A80036" stroke-width="1.5" filter="url(#f19z277fa1pxys)" rx="12.5" ry="12.5"/><text x="606" y="943.16" fill="#000" font-family="sans-serif" font-size="12" lengthAdjust="spacingAndGlyphs" textLength="36">update</text><line x1="585" x2="657" y1="989.941" y2="989.941" stroke="#A80036" stroke-width="1.5"/><rect width="38" height="32.633" x="566" y="1011.441" fill="#FEFECE" stroke="#A80036" stroke-width="1.5" filter="url(#f19z277fa1pxys)" rx="12.5" ry="12.5"/><text x="576" y="1032.293" fill="#000" font-family="sans-serif" font-size="12" lengthAdjust="spacingAndGlyphs" textLength="18">put</text><rect width="50" height="32.633" x="632" y="1011.441" fill="#FEFECE" stroke="#A80036" stroke-width="1.5" filter="url(#f19z277fa1pxys)" rx="12.5" ry="12.5"/><text x="642" y="1032.293" fill="#000" font-family="sans-serif" font-size="12" lengthAdjust="spacingAndGlyphs" textLength="30">patch</text><line x1="585" x2="657" y1="1064.074" y2="1064.074" stroke="#A80036" stroke-width="1.5"/><rect width="56" height="32.633" x="596" y="1100.574" fill="#FEFECE" stroke="#A80036" stroke-width="1.5" filter="url(#f19z277fa1pxys)" rx="12.5" ry="12.5"/><text x="606" y="1121.426" fill="#000" font-family="sans-serif" font-size="12" lengthAdjust="spacingAndGlyphs" textLength="36">udpate</text><rect width="80" height="32.633" x="584" y="1168.207" fill="#FEFECE" stroke="#A80036" stroke-width="1.5" filter="url(#f19z277fa1pxys)" rx="12.5" ry="12.5"/><text x="594" y="1189.059" fill="#000" font-family="sans-serif" font-size="12" lengthAdjust="spacingAndGlyphs" textLength="60">get_object</text><rect width="104" height="32.633" x="572" y="1235.84" fill="#FEFECE" stroke="#A80036" stroke-width="1.5" filter="url(#f19z277fa1pxys)" rx="12.5" ry="12.5"/><text x="582" y="1256.691" fill="#000" font-family="sans-serif" font-size="12" lengthAdjust="spacingAndGlyphs" textLength="84">get_serializer</text><rect width="68" height="32.633" x="590" y="1303.473" fill="#FEFECE" stroke="#A80036" stroke-width="1.5" filter="url(#f19z277fa1pxys)" rx="12.5" ry="12.5"/><text x="600" y="1324.324" fill="#000" font-family="sans-serif" font-size="12" lengthAdjust="spacingAndGlyphs" textLength="48">is_valid</text><rect width="104" height="32.633" x="572" y="1371.105" fill="#FEFECE" stroke="#A80036" stroke-width="1.5" filter="url(#f19z277fa1pxys)" rx="12.5" ry="12.5"/><text x="582" y="1391.957" fill="#000" font-family="sans-serif" font-size="12" lengthAdjust="spacingAndGlyphs" textLength="84">perform_update</text><rect width="44" height="32.633" x="602" y="1438.738" fill="#FEFECE" stroke="#A80036" stroke-width="1.5" filter="url(#f19z277fa1pxys)" rx="12.5" ry="12.5"/><text x="612" y="1459.59" fill="#000" font-family="sans-serif" font-size="12" lengthAdjust="spacingAndGlyphs" textLength="24">save</text><rect width="104" height="32.633" x="727" y="977.625" fill="#FF0" stroke="#A80036" stroke-width="1.5" filter="url(#f19z277fa1pxys)" rx="12.5" ry="12.5"/><text x="737" y="998.477" fill="#000" font-family="sans-serif" font-size="12" lengthAdjust="spacingAndGlyphs" textLength="84">DestroyAPIView</text><rect width="56" height="32.633" x="751" y="1045.258" fill="#FEFECE" stroke="#A80036" stroke-width="1.5" filter="url(#f19z277fa1pxys)" rx="12.5" ry="12.5"/><text x="761" y="1066.109" fill="#000" font-family="sans-serif" font-size="12" lengthAdjust="spacingAndGlyphs" textLength="36">delete</text><rect width="62" height="32.633" x="748" y="1112.891" fill="#FEFECE" stroke="#A80036" stroke-width="1.5" filter="url(#f19z277fa1pxys)" rx="12.5" ry="12.5"/><text x="758" y="1133.742" fill="#000" font-family="sans-serif" font-size="12" lengthAdjust="spacingAndGlyphs" textLength="42">destory</text><rect width="80" height="32.633" x="739" y="1180.523" fill="#FEFECE" stroke="#A80036" stroke-width="1.5" filter="url(#f19z277fa1pxys)" rx="12.5" ry="12.5"/><text x="749" y="1201.375" fill="#000" font-family="sans-serif" font-size="12" lengthAdjust="spacingAndGlyphs" textLength="60">get_object</text><rect width="110" height="32.633" x="724" y="1248.156" fill="#FEFECE" stroke="#A80036" stroke-width="1.5" filter="url(#f19z277fa1pxys)" rx="12.5" ry="12.5"/><text x="734" y="1269.008" fill="#000" font-family="sans-serif" font-size="12" lengthAdjust="spacingAndGlyphs" textLength="90">perform_destory</text><rect width="56" height="32.633" x="751" y="1315.789" fill="#FEFECE" stroke="#A80036" stroke-width="1.5" filter="url(#f19z277fa1pxys)" rx="12.5" ry="12.5"/><text x="761" y="1336.641" fill="#000" font-family="sans-serif" font-size="12" lengthAdjust="spacingAndGlyphs" textLength="36">delete</text><line x1="179" x2="779" y1="1532.871" y2="1532.871" stroke="#A80036" stroke-width="1.5"/><rect width="68" height="32.633" x="381" y="1552.871" fill="#FEFECE" stroke="#A80036" stroke-width="1.5" filter="url(#f19z277fa1pxys)" rx="12.5" ry="12.5"/><text x="391" y="1573.723" fill="#000" font-family="sans-serif" font-size="12" lengthAdjust="spacingAndGlyphs" textLength="48">Response</text><rect width="122" height="32.633" x="354" y="1605.504" fill="#FEFECE" stroke="#A80036" stroke-width="1.5" filter="url(#f19z277fa1pxys)" rx="12.5" ry="12.5"/><text x="370" y="1626.355" fill="#000" font-family="sans-serif" font-size="12" lengthAdjust="spacingAndGlyphs" textLength="96">view中的业务逻辑</text><line x1="286" x2="286" y1="83.082" y2="101.582" stroke="#A80036" stroke-width="1.5"/><polygon fill="#A80036" stroke="#A80036" stroke-width="1" points="282 91.582 286 101.582 290 91.582 286 95.582"/><line x1="361" x2="361" y1="83.082" y2="101.582" stroke="#A80036" stroke-width="1.5"/><polygon fill="#A80036" stroke="#A80036" stroke-width="1" points="357 91.582 361 101.582 365 91.582 361 95.582"/><line x1="445" x2="445" y1="83.082" y2="101.582" stroke="#A80036" stroke-width="1.5"/><polygon fill="#A80036" stroke="#A80036" stroke-width="1" points="441 91.582 445 101.582 449 91.582 445 95.582"/><line x1="535" x2="535" y1="83.082" y2="101.582" stroke="#A80036" stroke-width="1.5"/><polygon fill="#A80036" stroke="#A80036" stroke-width="1" points="531 91.582 535 101.582 539 91.582 535 95.582"/><line x1="286" x2="286" y1="134.215" y2="154.215" stroke="#A80036" stroke-width="1.5"/><polygon fill="#A80036" stroke="#A80036" stroke-width="1" points="282 144.215 286 154.215 290 144.215 286 148.215"/><line x1="361" x2="361" y1="134.215" y2="154.215" stroke="#A80036" stroke-width="1.5"/><polygon fill="#A80036" stroke="#A80036" stroke-width="1" points="357 144.215 361 154.215 365 144.215 361 148.215"/><line x1="445" x2="445" y1="134.215" y2="154.215" stroke="#A80036" stroke-width="1.5"/><polygon fill="#A80036" stroke="#A80036" stroke-width="1" points="441 144.215 445 154.215 449 144.215 445 148.215"/><line x1="535" x2="535" y1="134.215" y2="154.215" stroke="#A80036" stroke-width="1.5"/><polygon fill="#A80036" stroke="#A80036" stroke-width="1" points="531 144.215 535 154.215 539 144.215 535 148.215"/><line x1="415" x2="415" y1="61.582" y2="81.582" stroke="#A80036" stroke-width="1.5"/><polygon fill="#A80036" stroke="#A80036" stroke-width="1" points="411 71.582 415 81.582 419 71.582 415 75.582"/><line x1="415" x2="415" y1="155.715" y2="174.215" stroke="#A80036" stroke-width="1.5"/><polygon fill="#A80036" stroke="#A80036" stroke-width="1" points="411 164.215 415 174.215 419 164.215 415 168.215"/><line x1="415" x2="415" y1="206.848" y2="226.848" stroke="#A80036" stroke-width="1.5"/><polygon fill="#A80036" stroke="#A80036" stroke-width="1" points="411 216.848 415 226.848 419 216.848 415 220.848"/><line x1="415" x2="415" y1="259.481" y2="279.481" stroke="#A80036" stroke-width="1.5"/><polygon fill="#A80036" stroke="#A80036" stroke-width="1" points="411 269.481 415 279.481 419 269.481 415 273.481"/><line x1="415" x2="415" y1="312.113" y2="332.113" stroke="#A80036" stroke-width="1.5"/><polygon fill="#A80036" stroke="#A80036" stroke-width="1" points="411 322.113 415 332.113 419 322.113 415 326.113"/><line x1="415" x2="415" y1="364.746" y2="384.746" stroke="#A80036" stroke-width="1.5"/><polygon fill="#A80036" stroke="#A80036" stroke-width="1" points="411 374.746 415 384.746 419 374.746 415 378.746"/><line x1="415" x2="415" y1="417.379" y2="437.379" stroke="#A80036" stroke-width="1.5"/><polygon fill="#A80036" stroke="#A80036" stroke-width="1" points="411 427.379 415 437.379 419 427.379 415 431.379"/><line x1="415" x2="415" y1="470.012" y2="490.012" stroke="#A80036" stroke-width="1.5"/><polygon fill="#A80036" stroke="#A80036" stroke-width="1" points="411 480.012 415 490.012 419 480.012 415 484.012"/><line x1="415" x2="415" y1="522.644" y2="542.644" stroke="#A80036" stroke-width="1.5"/><polygon fill="#A80036" stroke="#A80036" stroke-width="1" points="411 532.644 415 542.644 419 532.644 415 536.644"/><line x1="127" x2="127" y1="647.91" y2="682.91" stroke="#A80036" stroke-width="1.5"/><polygon fill="#A80036" stroke="#A80036" stroke-width="1" points="123 672.91 127 682.91 131 672.91 127 676.91"/><line x1="331" x2="331" y1="647.91" y2="682.91" stroke="#A80036" stroke-width="1.5"/><polygon fill="#A80036" stroke="#A80036" stroke-width="1" points="327 672.91 331 682.91 335 672.91 331 676.91"/><line x1="451" x2="451" y1="647.91" y2="682.91" stroke="#A80036" stroke-width="1.5"/><polygon fill="#A80036" stroke="#A80036" stroke-width="1" points="447 672.91 451 682.91 455 672.91 451 676.91"/><line x1="571" x2="571" y1="647.91" y2="682.91" stroke="#A80036" stroke-width="1.5"/><polygon fill="#A80036" stroke="#A80036" stroke-width="1" points="567 672.91 571 682.91 575 672.91 571 676.91"/><line x1="691" x2="691" y1="647.91" y2="682.91" stroke="#A80036" stroke-width="1.5"/><polygon fill="#A80036" stroke="#A80036" stroke-width="1" points="687 672.91 691 682.91 695 672.91 691 676.91"/><line x1="127" x2="127" y1="596.777" y2="615.277" stroke="#A80036" stroke-width="1.5"/><polygon fill="#A80036" stroke="#A80036" stroke-width="1" points="123 605.277 127 615.277 131 605.277 127 609.277"/><line x1="223" x2="223" y1="596.777" y2="649.094" stroke="#A80036" stroke-width="1.5"/><polygon fill="#A80036" stroke="#A80036" stroke-width="1" points="219 639.094 223 649.094 227 639.094 223 643.094"/><line x1="331" x2="331" y1="596.777" y2="615.277" stroke="#A80036" stroke-width="1.5"/><polygon fill="#A80036" stroke="#A80036" stroke-width="1" points="327 605.277 331 615.277 335 605.277 331 609.277"/><line x1="451" x2="451" y1="596.777" y2="615.277" stroke="#A80036" stroke-width="1.5"/><polygon fill="#A80036" stroke="#A80036" stroke-width="1" points="447 605.277 451 615.277 455 605.277 451 609.277"/><line x1="571" x2="571" y1="596.777" y2="615.277" stroke="#A80036" stroke-width="1.5"/><polygon fill="#A80036" stroke="#A80036" stroke-width="1" points="567 605.277 571 615.277 575 605.277 571 609.277"/><line x1="691" x2="691" y1="596.777" y2="615.277" stroke="#A80036" stroke-width="1.5"/><polygon fill="#A80036" stroke="#A80036" stroke-width="1" points="687 605.277 691 615.277 695 605.277 691 609.277"/><line x1="127" x2="127" y1="715.543" y2="735.543" stroke="#A80036" stroke-width="1.5"/><polygon fill="#A80036" stroke="#A80036" stroke-width="1" points="123 725.543 127 735.543 131 725.543 127 729.543"/><line x1="223" x2="223" y1="681.727" y2="735.543" stroke="#A80036" stroke-width="1.5"/><polygon fill="#A80036" stroke="#A80036" stroke-width="1" points="219 725.543 223 735.543 227 725.543 223 729.543"/><line x1="331" x2="331" y1="715.543" y2="735.543" stroke="#A80036" stroke-width="1.5"/><polygon fill="#A80036" stroke="#A80036" stroke-width="1" points="327 725.543 331 735.543 335 725.543 331 729.543"/><line x1="451" x2="451" y1="715.543" y2="735.543" stroke="#A80036" stroke-width="1.5"/><polygon fill="#A80036" stroke="#A80036" stroke-width="1" points="447 725.543 451 735.543 455 725.543 451 729.543"/><line x1="571" x2="571" y1="715.543" y2="735.543" stroke="#A80036" stroke-width="1.5"/><polygon fill="#A80036" stroke="#A80036" stroke-width="1" points="567 725.543 571 735.543 575 725.543 571 729.543"/><line x1="691" x2="691" y1="715.543" y2="735.543" stroke="#A80036" stroke-width="1.5"/><polygon fill="#A80036" stroke="#A80036" stroke-width="1" points="687 725.543 691 735.543 695 725.543 691 729.543"/><line x1="415" x2="415" y1="575.277" y2="595.277" stroke="#A80036" stroke-width="1.5"/><polygon fill="#A80036" stroke="#A80036" stroke-width="1" points="411 585.277 415 595.277 419 585.277 415 589.277"/><line x1="415" x2="415" y1="737.043" y2="755.543" stroke="#A80036" stroke-width="1.5"/><polygon fill="#A80036" stroke="#A80036" stroke-width="1" points="411 745.543 415 755.543 419 745.543 415 749.543"/><line x1="122" x2="122" y1="829.676" y2="848.176" stroke="#A80036" stroke-width="1.5"/><polygon fill="#A80036" stroke="#A80036" stroke-width="1" points="118 838.176 122 848.176 126 838.176 122 842.176"/><line x1="248" x2="248" y1="829.676" y2="848.176" stroke="#A80036" stroke-width="1.5"/><polygon fill="#A80036" stroke="#A80036" stroke-width="1" points="244 838.176 248 848.176 252 838.176 248 842.176"/><line x1="122" x2="122" y1="880.809" y2="900.809" stroke="#A80036" stroke-width="1.5"/><polygon fill="#A80036" stroke="#A80036" stroke-width="1" points="118 890.809 122 900.809 126 890.809 122 894.809"/><line x1="248" x2="248" y1="880.809" y2="900.809" stroke="#A80036" stroke-width="1.5"/><polygon fill="#A80036" stroke="#A80036" stroke-width="1" points="244 890.809 248 900.809 252 890.809 248 894.809"/><line x1="179" x2="179" y1="902.309" y2="922.309" stroke="#A80036" stroke-width="1.5"/><polygon fill="#A80036" stroke="#A80036" stroke-width="1" points="175 912.309 179 922.309 183 912.309 179 916.309"/><line x1="227" x2="227" y1="1044.074" y2="1079.074" stroke="#A80036" stroke-width="1.5"/><polygon fill="#A80036" stroke="#A80036" stroke-width="1" points="223 1069.074 227 1079.074 231 1069.074 227 1073.074"/><line x1="104" x2="104" y1="991.441" y2="1045.258" stroke="#A80036" stroke-width="1.5"/><polygon fill="#A80036" stroke="#A80036" stroke-width="1" points="100 1035.258 104 1045.258 108 1035.258 104 1039.258"/><line x1="227" x2="227" y1="991.441" y2="1011.441" stroke="#A80036" stroke-width="1.5"/><polygon fill="#A80036" stroke="#A80036" stroke-width="1" points="223 1001.441 227 1011.441 231 1001.441 227 1005.441"/><line x1="104" x2="104" y1="1077.891" y2="1131.707" stroke="#A80036" stroke-width="1.5"/><polygon fill="#A80036" stroke="#A80036" stroke-width="1" points="100 1121.707 104 1131.707 108 1121.707 104 1125.707"/><line x1="227" x2="227" y1="1111.707" y2="1131.707" stroke="#A80036" stroke-width="1.5"/><polygon fill="#A80036" stroke="#A80036" stroke-width="1" points="223 1121.707 227 1131.707 231 1121.707 227 1125.707"/><line x1="179" x2="179" y1="954.941" y2="989.941" stroke="#A80036" stroke-width="1.5"/><polygon fill="#A80036" stroke="#A80036" stroke-width="1" points="175 979.941 179 989.941 183 979.941 179 983.941"/><line x1="179" x2="179" y1="1133.207" y2="1168.207" stroke="#A80036" stroke-width="1.5"/><polygon fill="#A80036" stroke="#A80036" stroke-width="1" points="175 1158.207 179 1168.207 183 1158.207 179 1162.207"/><line x1="179" x2="179" y1="1200.84" y2="1235.84" stroke="#A80036" stroke-width="1.5"/><polygon fill="#A80036" stroke="#A80036" stroke-width="1" points="175 1225.84 179 1235.84 183 1225.84 179 1229.84"/><line x1="89" x2="89" y1="1391.422" y2="1426.422" stroke="#A80036" stroke-width="1.5"/><polygon fill="#A80036" stroke="#A80036" stroke-width="1" points="85 1416.422 89 1426.422 93 1416.422 89 1420.422"/><line x1="272" x2="272" y1="1357.605" y2="1392.605" stroke="#A80036" stroke-width="1.5"/><polygon fill="#A80036" stroke="#A80036" stroke-width="1" points="268 1382.605 272 1392.605 276 1382.605 272 1386.605"/><line x1="272" x2="272" y1="1425.238" y2="1460.238" stroke="#A80036" stroke-width="1.5"/><polygon fill="#A80036" stroke="#A80036" stroke-width="1" points="268 1450.238 272 1460.238 276 1450.238 272 1454.238"/><line x1="89" x2="89" y1="1304.973" y2="1358.789" stroke="#A80036" stroke-width="1.5"/><polygon fill="#A80036" stroke="#A80036" stroke-width="1" points="85 1348.789 89 1358.789 93 1348.789 89 1352.789"/><line x1="272" x2="272" y1="1304.973" y2="1324.973" stroke="#A80036" stroke-width="1.5"/><polygon fill="#A80036" stroke="#A80036" stroke-width="1" points="268 1314.973 272 1324.973 276 1314.973 272 1318.973"/><line x1="89" x2="89" y1="1459.055" y2="1512.871" stroke="#A80036" stroke-width="1.5"/><polygon fill="#A80036" stroke="#A80036" stroke-width="1" points="85 1502.871 89 1512.871 93 1502.871 89 1506.871"/><line x1="272" x2="272" y1="1492.871" y2="1512.871" stroke="#A80036" stroke-width="1.5"/><polygon fill="#A80036" stroke="#A80036" stroke-width="1" points="268 1502.871 272 1512.871 276 1502.871 272 1506.871"/><line x1="179" x2="179" y1="1268.473" y2="1303.473" stroke="#A80036" stroke-width="1.5"/><polygon fill="#A80036" stroke="#A80036" stroke-width="1" points="175 1293.473 179 1303.473 183 1293.473 179 1297.473"/><line x1="457" x2="457" y1="976.441" y2="1011.441" stroke="#A80036" stroke-width="1.5"/><polygon fill="#A80036" stroke="#A80036" stroke-width="1" points="453 1001.441 457 1011.441 461 1001.441 457 1005.441"/><line x1="457" x2="457" y1="1044.074" y2="1079.074" stroke="#A80036" stroke-width="1.5"/><polygon fill="#A80036" stroke="#A80036" stroke-width="1" points="453 1069.074 457 1079.074 461 1069.074 457 1073.074"/><line x1="457" x2="457" y1="1111.707" y2="1146.707" stroke="#A80036" stroke-width="1.5"/><polygon fill="#A80036" stroke="#A80036" stroke-width="1" points="453 1136.707 457 1146.707 461 1136.707 457 1140.707"/><line x1="457" x2="457" y1="1179.34" y2="1214.34" stroke="#A80036" stroke-width="1.5"/><polygon fill="#A80036" stroke="#A80036" stroke-width="1" points="453 1204.34 457 1214.34 461 1204.34 457 1208.34"/><line x1="457" x2="457" y1="1246.973" y2="1281.973" stroke="#A80036" stroke-width="1.5"/><polygon fill="#A80036" stroke="#A80036" stroke-width="1" points="453 1271.973 457 1281.973 461 1271.973 457 1275.973"/><line x1="457" x2="457" y1="1314.605" y2="1349.605" stroke="#A80036" stroke-width="1.5"/><polygon fill="#A80036" stroke="#A80036" stroke-width="1" points="453 1339.605 457 1349.605 461 1339.605 457 1343.605"/><line x1="624" x2="624" y1="902.309" y2="922.309" stroke="#A80036" stroke-width="1.5"/><polygon fill="#A80036" stroke="#A80036" stroke-width="1" points="620 912.309 624 922.309 628 912.309 624 916.309"/><line x1="585" x2="585" y1="991.441" y2="1011.441" stroke="#A80036" stroke-width="1.5"/><polygon fill="#A80036" stroke="#A80036" stroke-width="1" points="581 1001.441 585 1011.441 589 1001.441 585 1005.441"/><line x1="657" x2="657" y1="991.441" y2="1011.441" stroke="#A80036" stroke-width="1.5"/><polygon fill="#A80036" stroke="#A80036" stroke-width="1" points="653 1001.441 657 1011.441 661 1001.441 657 1005.441"/><line x1="585" x2="585" y1="1044.074" y2="1064.074" stroke="#A80036" stroke-width="1.5"/><polygon fill="#A80036" stroke="#A80036" stroke-width="1" points="581 1054.074 585 1064.074 589 1054.074 585 1058.074"/><line x1="657" x2="657" y1="1044.074" y2="1064.074" stroke="#A80036" stroke-width="1.5"/><polygon fill="#A80036" stroke="#A80036" stroke-width="1" points="653 1054.074 657 1064.074 661 1054.074 657 1058.074"/><line x1="624" x2="624" y1="954.941" y2="989.941" stroke="#A80036" stroke-width="1.5"/><polygon fill="#A80036" stroke="#A80036" stroke-width="1" points="620 979.941 624 989.941 628 979.941 624 983.941"/><line x1="624" x2="624" y1="1065.574" y2="1100.574" stroke="#A80036" stroke-width="1.5"/><polygon fill="#A80036" stroke="#A80036" stroke-width="1" points="620 1090.574 624 1100.574 628 1090.574 624 1094.574"/><line x1="624" x2="624" y1="1133.207" y2="1168.207" stroke="#A80036" stroke-width="1.5"/><polygon fill="#A80036" stroke="#A80036" stroke-width="1" points="620 1158.207 624 1168.207 628 1158.207 624 1162.207"/><line x1="624" x2="624" y1="1200.84" y2="1235.84" stroke="#A80036" stroke-width="1.5"/><polygon fill="#A80036" stroke="#A80036" stroke-width="1" points="620 1225.84 624 1235.84 628 1225.84 624 1229.84"/><line x1="624" x2="624" y1="1268.473" y2="1303.473" stroke="#A80036" stroke-width="1.5"/><polygon fill="#A80036" stroke="#A80036" stroke-width="1" points="620 1293.473 624 1303.473 628 1293.473 624 1297.473"/><line x1="624" x2="624" y1="1336.105" y2="1371.105" stroke="#A80036" stroke-width="1.5"/><polygon fill="#A80036" stroke="#A80036" stroke-width="1" points="620 1361.105 624 1371.105 628 1361.105 624 1365.105"/><line x1="624" x2="624" y1="1403.738" y2="1438.738" stroke="#A80036" stroke-width="1.5"/><polygon fill="#A80036" stroke="#A80036" stroke-width="1" points="620 1428.738 624 1438.738 628 1428.738 624 1432.738"/><line x1="779" x2="779" y1="1010.258" y2="1045.258" stroke="#A80036" stroke-width="1.5"/><polygon fill="#A80036" stroke="#A80036" stroke-width="1" points="775 1035.258 779 1045.258 783 1035.258 779 1039.258"/><line x1="779" x2="779" y1="1077.891" y2="1112.891" stroke="#A80036" stroke-width="1.5"/><polygon fill="#A80036" stroke="#A80036" stroke-width="1" points="775 1102.891 779 1112.891 783 1102.891 779 1106.891"/><line x1="779" x2="779" y1="1145.523" y2="1180.523" stroke="#A80036" stroke-width="1.5"/><polygon fill="#A80036" stroke="#A80036" stroke-width="1" points="775 1170.523 779 1180.523 783 1170.523 779 1174.523"/><line x1="779" x2="779" y1="1213.156" y2="1248.156" stroke="#A80036" stroke-width="1.5"/><polygon fill="#A80036" stroke="#A80036" stroke-width="1" points="775 1238.156 779 1248.156 783 1238.156 779 1242.156"/><line x1="779" x2="779" y1="1280.789" y2="1315.789" stroke="#A80036" stroke-width="1.5"/><polygon fill="#A80036" stroke="#A80036" stroke-width="1" points="775 1305.789 779 1315.789 783 1305.789 779 1309.789"/><line x1="179" x2="179" y1="809.676" y2="828.176" stroke="#A80036" stroke-width="1.5"/><polygon fill="#A80036" stroke="#A80036" stroke-width="1" points="175 818.176 179 828.176 183 818.176 179 822.176"/><line x1="457" x2="457" y1="809.676" y2="943.809" stroke="#A80036" stroke-width="1.5"/><polygon fill="#A80036" stroke="#A80036" stroke-width="1" points="453 933.809 457 943.809 461 933.809 457 937.809"/><line x1="624" x2="624" y1="809.676" y2="869.676" stroke="#A80036" stroke-width="1.5"/><polygon fill="#A80036" stroke="#A80036" stroke-width="1" points="620 859.676 624 869.676 628 859.676 624 863.676"/><line x1="779" x2="779" y1="809.676" y2="977.625" stroke="#A80036" stroke-width="1.5"/><polygon fill="#A80036" stroke="#A80036" stroke-width="1" points="775 967.625 779 977.625 783 967.625 779 971.625"/><line x1="179" x2="179" y1="1514.371" y2="1532.871" stroke="#A80036" stroke-width="1.5"/><polygon fill="#A80036" stroke="#A80036" stroke-width="1" points="175 1522.871 179 1532.871 183 1522.871 179 1526.871"/><line x1="457" x2="457" y1="1382.238" y2="1532.871" stroke="#A80036" stroke-width="1.5"/><polygon fill="#A80036" stroke="#A80036" stroke-width="1" points="453 1522.871 457 1532.871 461 1522.871 457 1526.871"/><line x1="624" x2="624" y1="1471.371" y2="1532.871" stroke="#A80036" stroke-width="1.5"/><polygon fill="#A80036" stroke="#A80036" stroke-width="1" points="620 1522.871 624 1532.871 628 1522.871 624 1526.871"/><line x1="779" x2="779" y1="1348.422" y2="1532.871" stroke="#A80036" stroke-width="1.5"/><polygon fill="#A80036" stroke="#A80036" stroke-width="1" points="775 1522.871 779 1532.871 783 1522.871 779 1526.871"/><line x1="415" x2="415" y1="788.176" y2="808.176" stroke="#A80036" stroke-width="1.5"/><polygon fill="#A80036" stroke="#A80036" stroke-width="1" points="411 798.176 415 808.176 419 798.176 415 802.176"/><line x1="415" x2="415" y1="1534.371" y2="1552.871" stroke="#A80036" stroke-width="1.5"/><polygon fill="#A80036" stroke="#A80036" stroke-width="1" points="411 1542.871 415 1552.871 419 1542.871 415 1546.871"/><line x1="415" x2="415" y1="1585.504" y2="1605.504" stroke="#A80036" stroke-width="1.5"/><polygon fill="#A80036" stroke="#A80036" stroke-width="1" points="411 1595.504 415 1605.504 419 1595.504 415 1599.504"/></g></svg>