<?xml version="1.0" encoding="UTF-8" standalone="no"?><svg xmlns="http://www.w3.org/2000/svg" xmlns:xlink="http://www.w3.org/1999/xlink" contentScriptType="application/ecmascript" contentStyleType="text/css" height="1649px" preserveAspectRatio="none" style="width:845px;height:1649px;" version="1.1" viewBox="0 0 845 1649" width="845px" zoomAndPan="magnify">
    <defs>
        <filter height="300%" id="f19z277fa1pxys" width="300%" x="-1" y="-1">
            <feGaussianBlur result="blurOut" stdDeviation="2.0" />
            <feColorMatrix in="blurOut" result="blurOut2" type="matrix" values="0 0 0 0 0 0 0 0 0 0 0 0 0 0 0 0 0 0 .4 0" />
            <feOffset dx="4.0" dy="4.0" in="blurOut2" result="blurOut3" />
            <feBlend in="SourceGraphic" in2="blurOut3" mode="normal" />
        </filter>
    </defs>
    <g><text fill="#000000" font-family="sans-serif" font-size="18" lengthAdjust="spacingAndGlyphs" textLength="63" x="390" y="26.2773">APIView</text>
        <rect fill="#FEFECE" filter="url(#f19z277fa1pxys)" height="32.6328" rx="12.5" ry="12.5" style="stroke: #A80036; stroke-width: 1.5;" width="62" x="384" y="28.9492" /><text fill="#000000" font-family="sans-serif" font-size="12" lengthAdjust="spacingAndGlyphs" textLength="42" x="394" y="49.8008">Request</text>
        <line style="stroke: #A80036; stroke-width: 1.5;" x1="286" x2="535" y1="81.582" y2="81.582" />
        <rect fill="#FEFECE" filter="url(#f19z277fa1pxys)" height="32.6328" rx="12.5" ry="12.5" style="stroke: #A80036; stroke-width: 1.5;" width="44" x="264" y="101.582" /><text fill="#000000" font-family="sans-serif" font-size="12" lengthAdjust="spacingAndGlyphs" textLength="18" x="280" y="122.4336">get</text>
        <rect fill="#FEFECE" filter="url(#f19z277fa1pxys)" height="32.6328" rx="12.5" ry="12.5" style="stroke: #A80036; stroke-width: 1.5;" width="50" x="336" y="101.582" /><text fill="#000000" font-family="sans-serif" font-size="12" lengthAdjust="spacingAndGlyphs" textLength="24" x="352" y="122.4336">post</text>
        <rect fill="#FEFECE" filter="url(#f19z277fa1pxys)" height="32.6328" rx="12.5" ry="12.5" style="stroke: #A80036; stroke-width: 1.5;" width="62" x="414" y="101.582" /><text fill="#000000" font-family="sans-serif" font-size="12" lengthAdjust="spacingAndGlyphs" textLength="36" x="430" y="122.4336">update</text>
        <rect fill="#FEFECE" filter="url(#f19z277fa1pxys)" height="32.6328" rx="12.5" ry="12.5" style="stroke: #A80036; stroke-width: 1.5;" width="62" x="504" y="101.582" /><text fill="#000000" font-family="sans-serif" font-size="12" lengthAdjust="spacingAndGlyphs" textLength="36" x="520" y="122.4336">delete</text>
        <line style="stroke: #A80036; stroke-width: 1.5;" x1="286" x2="535" y1="154.2148" y2="154.2148" />
        <rect fill="#FEFECE" filter="url(#f19z277fa1pxys)" height="32.6328" rx="12.5" ry="12.5" style="stroke: #A80036; stroke-width: 1.5;" width="50" x="390" y="174.2148" /><text fill="#000000" font-family="sans-serif" font-size="12" lengthAdjust="spacingAndGlyphs" textLength="24" x="406" y="195.0664">wsgi</text>
        <rect fill="#FEFECE" filter="url(#f19z277fa1pxys)" height="32.6328" rx="12.5" ry="12.5" style="stroke: #A80036; stroke-width: 1.5;" width="62" x="384" y="226.8477" /><text fill="#000000" font-family="sans-serif" font-size="12" lengthAdjust="spacingAndGlyphs" textLength="42" x="394" y="247.6992">url路由</text>
        <rect fill="#FEFECE" filter="url(#f19z277fa1pxys)" height="32.6328" rx="12.5" ry="12.5" style="stroke: #A80036; stroke-width: 1.5;" width="152" x="339" y="279.4805" /><text fill="#000000" font-family="sans-serif" font-size="12" lengthAdjust="spacingAndGlyphs" textLength="126" x="355" y="300.332">继承自APIView的类视图</text>
        <path d="M469,336.5869 L469,344.4297 L449,348.4297 L469,352.4297 L469,360.2725 A0,0 0 0 0 469,360.2725 L553,360.2725 A0,0 0 0 0 553,360.2725 L553,346.5869 L543,336.5869 L469,336.5869 A0,0 0 0 0 469,336.5869 " fill="#FBFB77" filter="url(#f19z277fa1pxys)" style="stroke: #A80036; stroke-width: 1.0;" />
        <path d="M543,336.5869 L543,346.5869 L553,346.5869 L543,336.5869 " fill="#FBFB77" style="stroke: #A80036; stroke-width: 1.0;" /><text fill="#000000" font-family="sans-serif" font-size="13" lengthAdjust="spacingAndGlyphs" textLength="63" x="475" y="353.3428">继承自view</text>
        <rect fill="#FEFECE" filter="url(#f19z277fa1pxys)" height="32.6328" rx="12.5" ry="12.5" style="stroke: #A80036; stroke-width: 1.5;" width="68" x="381" y="332.1133" /><text fill="#000000" font-family="sans-serif" font-size="12" lengthAdjust="spacingAndGlyphs" textLength="42" x="397" y="352.9648">as_view</text>
        <rect fill="#FEFECE" filter="url(#f19z277fa1pxys)" height="32.6328" rx="12.5" ry="12.5" style="stroke: #A80036; stroke-width: 1.5;" width="110" x="360" y="384.7461" /><text fill="#000000" font-family="sans-serif" font-size="12" lengthAdjust="spacingAndGlyphs" textLength="90" x="370" y="405.5977">check_arguement</text>
        <path d="M233,441.8525 L233,465.5381 A0,0 0 0 0 233,465.5381 L361,465.5381 A0,0 0 0 0 361,465.5381 L361,459.8525 L381,453.6953 L361,451.8525 L361,451.8525 L351,441.8525 L233,441.8525 A0,0 0 0 0 233,441.8525 " fill="#FBFB77" filter="url(#f19z277fa1pxys)" style="stroke: #A80036; stroke-width: 1.0;" />
        <path d="M351,441.8525 L351,451.8525 L361,451.8525 L351,441.8525 " fill="#FBFB77" style="stroke: #A80036; stroke-width: 1.0;" /><text fill="#000000" font-family="sans-serif" font-size="13" lengthAdjust="spacingAndGlyphs" textLength="107" x="239" y="458.6084">调用APIView自己的</text>
        <rect fill="#FEFECE" filter="url(#f19z277fa1pxys)" height="32.6328" rx="12.5" ry="12.5" style="stroke: #A80036; stroke-width: 1.5;" width="68" x="381" y="437.3789" /><text fill="#000000" font-family="sans-serif" font-size="12" lengthAdjust="spacingAndGlyphs" textLength="48" x="391" y="458.2305">dispatch</text>
        <path d="M499,494.4854 L499,518.1709 L614,518.1709 L614,504.4854 L604,494.4854 L499,494.4854 " fill="#FBFB77" filter="url(#f19z277fa1pxys)" style="stroke: #A80036; stroke-width: 1.0;" />
        <path d="M604,494.4854 L604,504.4854 L614,504.4854 L604,494.4854 " fill="#FBFB77" style="stroke: #A80036; stroke-width: 1.0;" /><text fill="#000000" font-family="sans-serif" font-size="13" lengthAdjust="spacingAndGlyphs" textLength="94" x="505" y="511.2412">重新封装request</text>
        <rect fill="#FEFECE" filter="url(#f19z277fa1pxys)" height="32.6328" rx="12.5" ry="12.5" style="stroke: #A80036; stroke-width: 1.5;" width="128" x="351" y="490.0117" /><text fill="#000000" font-family="sans-serif" font-size="12" lengthAdjust="spacingAndGlyphs" textLength="108" x="361" y="510.8633">initialize_request</text>
        <rect fill="#FEFECE" filter="url(#f19z277fa1pxys)" height="32.6328" rx="12.5" ry="12.5" style="stroke: #A80036; stroke-width: 1.5;" width="62" x="384" y="542.6445" /><text fill="#000000" font-family="sans-serif" font-size="12" lengthAdjust="spacingAndGlyphs" textLength="42" x="394" y="563.4961">initial</text>
        <line style="stroke: #A80036; stroke-width: 1.5;" x1="127" x2="691" y1="595.2773" y2="595.2773" />
        <rect fill="#FEFECE" filter="url(#f19z277fa1pxys)" height="32.6328" rx="12.5" ry="12.5" style="stroke: #A80036; stroke-width: 1.5;" width="68" x="93" y="615.2773" /><text fill="#000000" font-family="sans-serif" font-size="12" lengthAdjust="spacingAndGlyphs" textLength="48" x="103" y="636.1289">检查后缀</text>
        <rect fill="#FEFECE" filter="url(#f19z277fa1pxys)" height="32.6328" rx="12.5" ry="12.5" style="stroke: #A80036; stroke-width: 1.5;" width="44" x="105" y="682.9102" /><text fill="#000000" font-family="sans-serif" font-size="12" lengthAdjust="spacingAndGlyphs" textLength="24" x="115" y="703.7617">预设</text>
        <rect fill="#FEFECE" filter="url(#f19z277fa1pxys)" height="32.6328" rx="12.5" ry="12.5" style="stroke: #A80036; stroke-width: 1.5;" width="68" x="189" y="649.0938" /><text fill="#000000" font-family="sans-serif" font-size="12" lengthAdjust="spacingAndGlyphs" textLength="48" x="199" y="669.9453">内容决策</text>
        <rect fill="#FEFECE" filter="url(#f19z277fa1pxys)" height="32.6328" rx="12.5" ry="12.5" style="stroke: #A80036; stroke-width: 1.5;" width="68" x="297" y="615.2773" /><text fill="#000000" font-family="sans-serif" font-size="12" lengthAdjust="spacingAndGlyphs" textLength="48" x="307" y="636.1289">版本决策</text>
        <rect fill="#FEFECE" filter="url(#f19z277fa1pxys)" height="32.6328" rx="12.5" ry="12.5" style="stroke: #A80036; stroke-width: 1.5;" width="92" x="285" y="682.9102" /><text fill="#000000" font-family="sans-serif" font-size="12" lengthAdjust="spacingAndGlyphs" textLength="72" x="295" y="703.7617">检查版本更新</text>
        <rect fill="#FEFECE" filter="url(#f19z277fa1pxys)" height="32.6328" rx="12.5" ry="12.5" style="stroke: #A80036; stroke-width: 1.5;" width="68" x="417" y="615.2773" /><text fill="#000000" font-family="sans-serif" font-size="12" lengthAdjust="spacingAndGlyphs" textLength="48" x="427" y="636.1289">执行认证</text>
        <rect fill="#FEFECE" filter="url(#f19z277fa1pxys)" height="32.6328" rx="12.5" ry="12.5" style="stroke: #A80036; stroke-width: 1.5;" width="92" x="405" y="682.9102" /><text fill="#000000" font-family="sans-serif" font-size="12" lengthAdjust="spacingAndGlyphs" textLength="72" x="415" y="703.7617">重写认证规则</text>
        <rect fill="#FEFECE" filter="url(#f19z277fa1pxys)" height="32.6328" rx="12.5" ry="12.5" style="stroke: #A80036; stroke-width: 1.5;" width="68" x="537" y="615.2773" /><text fill="#000000" font-family="sans-serif" font-size="12" lengthAdjust="spacingAndGlyphs" textLength="48" x="547" y="636.1289">检查权限</text>
        <rect fill="#FEFECE" filter="url(#f19z277fa1pxys)" height="32.6328" rx="12.5" ry="12.5" style="stroke: #A80036; stroke-width: 1.5;" width="92" x="525" y="682.9102" /><text fill="#000000" font-family="sans-serif" font-size="12" lengthAdjust="spacingAndGlyphs" textLength="72" x="535" y="703.7617">重写权限规则</text>
        <rect fill="#FEFECE" filter="url(#f19z277fa1pxys)" height="32.6328" rx="12.5" ry="12.5" style="stroke: #A80036; stroke-width: 1.5;" width="44" x="669" y="615.2773" /><text fill="#000000" font-family="sans-serif" font-size="12" lengthAdjust="spacingAndGlyphs" textLength="24" x="679" y="636.1289">节流</text>
        <rect fill="#FEFECE" filter="url(#f19z277fa1pxys)" height="32.6328" rx="12.5" ry="12.5" style="stroke: #A80036; stroke-width: 1.5;" width="92" x="645" y="682.9102" /><text fill="#000000" font-family="sans-serif" font-size="12" lengthAdjust="spacingAndGlyphs" textLength="72" x="655" y="703.7617">定义节流规则</text>
        <line style="stroke: #A80036; stroke-width: 1.5;" x1="127" x2="691" y1="735.543" y2="735.543" />
        <rect fill="#FEFECE" filter="url(#f19z277fa1pxys)" height="32.6328" rx="12.5" ry="12.5" style="stroke: #A80036; stroke-width: 1.5;" width="44" x="393" y="755.543" /><text fill="#000000" font-family="sans-serif" font-size="12" lengthAdjust="spacingAndGlyphs" textLength="24" x="403" y="776.3945">分发</text>
        <line style="stroke: #A80036; stroke-width: 1.5;" x1="179" x2="779" y1="808.1758" y2="808.1758" />
        <line style="stroke: #A80036; stroke-width: 1.5;" x1="122" x2="248" y1="828.1758" y2="828.1758" />
        <rect fill="#FFFF00" filter="url(#f19z277fa1pxys)" height="32.6328" rx="12.5" ry="12.5" style="stroke: #A80036; stroke-width: 1.5;" width="110" x="67" y="848.1758" /><text fill="#000000" font-family="sans-serif" font-size="12" lengthAdjust="spacingAndGlyphs" textLength="90" x="77" y="869.0273">RetrieveAPIView</text>
        <rect fill="#FFFF00" filter="url(#f19z277fa1pxys)" height="32.6328" rx="12.5" ry="12.5" style="stroke: #A80036; stroke-width: 1.5;" width="86" x="205" y="848.1758" /><text fill="#000000" font-family="sans-serif" font-size="12" lengthAdjust="spacingAndGlyphs" textLength="66" x="215" y="869.0273">ListAPIView</text>
        <line style="stroke: #A80036; stroke-width: 1.5;" x1="122" x2="248" y1="900.8086" y2="900.8086" />
        <rect fill="#FEFECE" filter="url(#f19z277fa1pxys)" height="32.6328" rx="12.5" ry="12.5" style="stroke: #A80036; stroke-width: 1.5;" width="38" x="160" y="922.3086" /><text fill="#000000" font-family="sans-serif" font-size="12" lengthAdjust="spacingAndGlyphs" textLength="18" x="170" y="943.1602">get</text>
        <line style="stroke: #A80036; stroke-width: 1.5;" x1="104" x2="227" y1="989.9414" y2="989.9414" />
        <rect fill="#FEFECE" filter="url(#f19z277fa1pxys)" height="32.6328" rx="12.5" ry="12.5" style="stroke: #A80036; stroke-width: 1.5;" width="68" x="70" y="1045.2578" /><text fill="#000000" font-family="sans-serif" font-size="12" lengthAdjust="spacingAndGlyphs" textLength="48" x="80" y="1066.1094">retrieve</text>
        <rect fill="#FEFECE" filter="url(#f19z277fa1pxys)" height="32.6328" rx="12.5" ry="12.5" style="stroke: #A80036; stroke-width: 1.5;" width="44" x="205" y="1011.4414" /><text fill="#000000" font-family="sans-serif" font-size="12" lengthAdjust="spacingAndGlyphs" textLength="24" x="215" y="1032.293">list</text>
        <rect fill="#FEFECE" filter="url(#f19z277fa1pxys)" height="32.6328" rx="12.5" ry="12.5" style="stroke: #A80036; stroke-width: 1.5;" width="122" x="166" y="1079.0742" /><text fill="#000000" font-family="sans-serif" font-size="12" lengthAdjust="spacingAndGlyphs" textLength="102" x="176" y="1099.9258">paginate_queryset</text>
        <line style="stroke: #A80036; stroke-width: 1.5;" x1="104" x2="227" y1="1131.707" y2="1131.707" />
        <rect fill="#FEFECE" filter="url(#f19z277fa1pxys)" height="32.6328" rx="12.5" ry="12.5" style="stroke: #A80036; stroke-width: 1.5;" width="80" x="139" y="1168.207" /><text fill="#000000" font-family="sans-serif" font-size="12" lengthAdjust="spacingAndGlyphs" textLength="60" x="149" y="1189.0586">get object</text>
        <rect fill="#FEFECE" filter="url(#f19z277fa1pxys)" height="32.6328" rx="12.5" ry="12.5" style="stroke: #A80036; stroke-width: 1.5;" width="92" x="133" y="1235.8398" /><text fill="#000000" font-family="sans-serif" font-size="12" lengthAdjust="spacingAndGlyphs" textLength="72" x="143" y="1256.6914">get_queryset</text>
        <line style="stroke: #A80036; stroke-width: 1.5;" x1="89" x2="272" y1="1303.4727" y2="1303.4727" />
        <rect fill="#FEFECE" filter="url(#f19z277fa1pxys)" height="32.6328" rx="12.5" ry="12.5" style="stroke: #A80036; stroke-width: 1.5;" width="110" x="34" y="1358.7891" /><text fill="#000000" font-family="sans-serif" font-size="12" lengthAdjust="spacingAndGlyphs" textLength="90" x="44" y="1379.6406">filter_queryset</text>
        <rect fill="#FEFECE" filter="url(#f19z277fa1pxys)" height="32.6328" rx="12.5" ry="12.5" style="stroke: #A80036; stroke-width: 1.5;" width="158" x="10" y="1426.4219" /><text fill="#000000" font-family="sans-serif" font-size="12" lengthAdjust="spacingAndGlyphs" textLength="138" x="20" y="1447.2734">check_object_permission</text>
        <rect fill="#FEFECE" filter="url(#f19z277fa1pxys)" height="32.6328" rx="12.5" ry="12.5" style="stroke: #A80036; stroke-width: 1.5;" width="104" x="220" y="1324.9727" /><text fill="#000000" font-family="sans-serif" font-size="12" lengthAdjust="spacingAndGlyphs" textLength="84" x="230" y="1345.8242">get_serializer</text>
        <rect fill="#FEFECE" filter="url(#f19z277fa1pxys)" height="32.6328" rx="12.5" ry="12.5" style="stroke: #A80036; stroke-width: 1.5;" width="140" x="202" y="1392.6055" /><text fill="#000000" font-family="sans-serif" font-size="12" lengthAdjust="spacingAndGlyphs" textLength="120" x="212" y="1413.457">get_serializer_class</text>
        <rect fill="#FEFECE" filter="url(#f19z277fa1pxys)" height="32.6328" rx="12.5" ry="12.5" style="stroke: #A80036; stroke-width: 1.5;" width="152" x="196" y="1460.2383" /><text fill="#000000" font-family="sans-serif" font-size="12" lengthAdjust="spacingAndGlyphs" textLength="132" x="206" y="1481.0898">get_serializer_context</text>
        <line style="stroke: #A80036; stroke-width: 1.5;" x1="89" x2="272" y1="1512.8711" y2="1512.8711" />
        <rect fill="#FFFF00" filter="url(#f19z277fa1pxys)" height="32.6328" rx="12.5" ry="12.5" style="stroke: #A80036; stroke-width: 1.5;" width="98" x="408" y="943.8086" /><text fill="#000000" font-family="sans-serif" font-size="12" lengthAdjust="spacingAndGlyphs" textLength="78" x="418" y="964.6602">CreateAPIView</text>
        <rect fill="#FEFECE" filter="url(#f19z277fa1pxys)" height="32.6328" rx="12.5" ry="12.5" style="stroke: #A80036; stroke-width: 1.5;" width="44" x="435" y="1011.4414" /><text fill="#000000" font-family="sans-serif" font-size="12" lengthAdjust="spacingAndGlyphs" textLength="24" x="445" y="1032.293">post</text>
        <rect fill="#FEFECE" filter="url(#f19z277fa1pxys)" height="32.6328" rx="12.5" ry="12.5" style="stroke: #A80036; stroke-width: 1.5;" width="56" x="429" y="1079.0742" /><text fill="#000000" font-family="sans-serif" font-size="12" lengthAdjust="spacingAndGlyphs" textLength="36" x="439" y="1099.9258">create</text>
        <rect fill="#FEFECE" filter="url(#f19z277fa1pxys)" height="32.6328" rx="12.5" ry="12.5" style="stroke: #A80036; stroke-width: 1.5;" width="104" x="405" y="1146.707" /><text fill="#000000" font-family="sans-serif" font-size="12" lengthAdjust="spacingAndGlyphs" textLength="84" x="415" y="1167.5586">get_serializer</text>
        <rect fill="#FEFECE" filter="url(#f19z277fa1pxys)" height="32.6328" rx="12.5" ry="12.5" style="stroke: #A80036; stroke-width: 1.5;" width="104" x="405" y="1214.3398" /><text fill="#000000" font-family="sans-serif" font-size="12" lengthAdjust="spacingAndGlyphs" textLength="84" x="415" y="1235.1914">perform_create</text>
        <rect fill="#FEFECE" filter="url(#f19z277fa1pxys)" height="32.6328" rx="12.5" ry="12.5" style="stroke: #A80036; stroke-width: 1.5;" width="44" x="435" y="1281.9727" /><text fill="#000000" font-family="sans-serif" font-size="12" lengthAdjust="spacingAndGlyphs" textLength="24" x="445" y="1302.8242">save</text>
        <rect fill="#FEFECE" filter="url(#f19z277fa1pxys)" height="32.6328" rx="12.5" ry="12.5" style="stroke: #A80036; stroke-width: 1.5;" width="134" x="390" y="1349.6055" /><text fill="#000000" font-family="sans-serif" font-size="12" lengthAdjust="spacingAndGlyphs" textLength="114" x="400" y="1370.457">get_success_headers</text>
        <rect fill="#FFFF00" filter="url(#f19z277fa1pxys)" height="32.6328" rx="12.5" ry="12.5" style="stroke: #A80036; stroke-width: 1.5;" width="98" x="575" y="869.6758" /><text fill="#000000" font-family="sans-serif" font-size="12" lengthAdjust="spacingAndGlyphs" textLength="78" x="585" y="890.5273">UpdateAPIView</text>
        <rect fill="#FEFECE" filter="url(#f19z277fa1pxys)" height="32.6328" rx="12.5" ry="12.5" style="stroke: #A80036; stroke-width: 1.5;" width="56" x="596" y="922.3086" /><text fill="#000000" font-family="sans-serif" font-size="12" lengthAdjust="spacingAndGlyphs" textLength="36" x="606" y="943.1602">update</text>
        <line style="stroke: #A80036; stroke-width: 1.5;" x1="585" x2="657" y1="989.9414" y2="989.9414" />
        <rect fill="#FEFECE" filter="url(#f19z277fa1pxys)" height="32.6328" rx="12.5" ry="12.5" style="stroke: #A80036; stroke-width: 1.5;" width="38" x="566" y="1011.4414" /><text fill="#000000" font-family="sans-serif" font-size="12" lengthAdjust="spacingAndGlyphs" textLength="18" x="576" y="1032.293">put</text>
        <rect fill="#FEFECE" filter="url(#f19z277fa1pxys)" height="32.6328" rx="12.5" ry="12.5" style="stroke: #A80036; stroke-width: 1.5;" width="50" x="632" y="1011.4414" /><text fill="#000000" font-family="sans-serif" font-size="12" lengthAdjust="spacingAndGlyphs" textLength="30" x="642" y="1032.293">patch</text>
        <line style="stroke: #A80036; stroke-width: 1.5;" x1="585" x2="657" y1="1064.0742" y2="1064.0742" />
        <rect fill="#FEFECE" filter="url(#f19z277fa1pxys)" height="32.6328" rx="12.5" ry="12.5" style="stroke: #A80036; stroke-width: 1.5;" width="56" x="596" y="1100.5742" /><text fill="#000000" font-family="sans-serif" font-size="12" lengthAdjust="spacingAndGlyphs" textLength="36" x="606" y="1121.4258">udpate</text>
        <rect fill="#FEFECE" filter="url(#f19z277fa1pxys)" height="32.6328" rx="12.5" ry="12.5" style="stroke: #A80036; stroke-width: 1.5;" width="80" x="584" y="1168.207" /><text fill="#000000" font-family="sans-serif" font-size="12" lengthAdjust="spacingAndGlyphs" textLength="60" x="594" y="1189.0586">get_object</text>
        <rect fill="#FEFECE" filter="url(#f19z277fa1pxys)" height="32.6328" rx="12.5" ry="12.5" style="stroke: #A80036; stroke-width: 1.5;" width="104" x="572" y="1235.8398" /><text fill="#000000" font-family="sans-serif" font-size="12" lengthAdjust="spacingAndGlyphs" textLength="84" x="582" y="1256.6914">get_serializer</text>
        <rect fill="#FEFECE" filter="url(#f19z277fa1pxys)" height="32.6328" rx="12.5" ry="12.5" style="stroke: #A80036; stroke-width: 1.5;" width="68" x="590" y="1303.4727" /><text fill="#000000" font-family="sans-serif" font-size="12" lengthAdjust="spacingAndGlyphs" textLength="48" x="600" y="1324.3242">is_valid</text>
        <rect fill="#FEFECE" filter="url(#f19z277fa1pxys)" height="32.6328" rx="12.5" ry="12.5" style="stroke: #A80036; stroke-width: 1.5;" width="104" x="572" y="1371.1055" /><text fill="#000000" font-family="sans-serif" font-size="12" lengthAdjust="spacingAndGlyphs" textLength="84" x="582" y="1391.957">perform_update</text>
        <rect fill="#FEFECE" filter="url(#f19z277fa1pxys)" height="32.6328" rx="12.5" ry="12.5" style="stroke: #A80036; stroke-width: 1.5;" width="44" x="602" y="1438.7383" /><text fill="#000000" font-family="sans-serif" font-size="12" lengthAdjust="spacingAndGlyphs" textLength="24" x="612" y="1459.5898">save</text>
        <rect fill="#FFFF00" filter="url(#f19z277fa1pxys)" height="32.6328" rx="12.5" ry="12.5" style="stroke: #A80036; stroke-width: 1.5;" width="104" x="727" y="977.625" /><text fill="#000000" font-family="sans-serif" font-size="12" lengthAdjust="spacingAndGlyphs" textLength="84" x="737" y="998.4766">DestroyAPIView</text>
        <rect fill="#FEFECE" filter="url(#f19z277fa1pxys)" height="32.6328" rx="12.5" ry="12.5" style="stroke: #A80036; stroke-width: 1.5;" width="56" x="751" y="1045.2578" /><text fill="#000000" font-family="sans-serif" font-size="12" lengthAdjust="spacingAndGlyphs" textLength="36" x="761" y="1066.1094">delete</text>
        <rect fill="#FEFECE" filter="url(#f19z277fa1pxys)" height="32.6328" rx="12.5" ry="12.5" style="stroke: #A80036; stroke-width: 1.5;" width="62" x="748" y="1112.8906" /><text fill="#000000" font-family="sans-serif" font-size="12" lengthAdjust="spacingAndGlyphs" textLength="42" x="758" y="1133.7422">destory</text>
        <rect fill="#FEFECE" filter="url(#f19z277fa1pxys)" height="32.6328" rx="12.5" ry="12.5" style="stroke: #A80036; stroke-width: 1.5;" width="80" x="739" y="1180.5234" /><text fill="#000000" font-family="sans-serif" font-size="12" lengthAdjust="spacingAndGlyphs" textLength="60" x="749" y="1201.375">get_object</text>
        <rect fill="#FEFECE" filter="url(#f19z277fa1pxys)" height="32.6328" rx="12.5" ry="12.5" style="stroke: #A80036; stroke-width: 1.5;" width="110" x="724" y="1248.1563" /><text fill="#000000" font-family="sans-serif" font-size="12" lengthAdjust="spacingAndGlyphs" textLength="90" x="734" y="1269.0078">perform_destory</text>
        <rect fill="#FEFECE" filter="url(#f19z277fa1pxys)" height="32.6328" rx="12.5" ry="12.5" style="stroke: #A80036; stroke-width: 1.5;" width="56" x="751" y="1315.7891" /><text fill="#000000" font-family="sans-serif" font-size="12" lengthAdjust="spacingAndGlyphs" textLength="36" x="761" y="1336.6406">delete</text>
        <line style="stroke: #A80036; stroke-width: 1.5;" x1="179" x2="779" y1="1532.8711" y2="1532.8711" />
        <rect fill="#FEFECE" filter="url(#f19z277fa1pxys)" height="32.6328" rx="12.5" ry="12.5" style="stroke: #A80036; stroke-width: 1.5;" width="68" x="381" y="1552.8711" /><text fill="#000000" font-family="sans-serif" font-size="12" lengthAdjust="spacingAndGlyphs" textLength="48" x="391" y="1573.7227">Response</text>
        <rect fill="#FEFECE" filter="url(#f19z277fa1pxys)" height="32.6328" rx="12.5" ry="12.5" style="stroke: #A80036; stroke-width: 1.5;" width="122" x="354" y="1605.5039" /><text fill="#000000" font-family="sans-serif" font-size="12" lengthAdjust="spacingAndGlyphs" textLength="96" x="370" y="1626.3555">view中的业务逻辑</text>
        <line style="stroke: #A80036; stroke-width: 1.5;" x1="286" x2="286" y1="83.082" y2="101.582" />
        <polygon fill="#A80036" points="282,91.582,286,101.582,290,91.582,286,95.582" style="stroke: #A80036; stroke-width: 1.0;" />
        <line style="stroke: #A80036; stroke-width: 1.5;" x1="361" x2="361" y1="83.082" y2="101.582" />
        <polygon fill="#A80036" points="357,91.582,361,101.582,365,91.582,361,95.582" style="stroke: #A80036; stroke-width: 1.0;" />
        <line style="stroke: #A80036; stroke-width: 1.5;" x1="445" x2="445" y1="83.082" y2="101.582" />
        <polygon fill="#A80036" points="441,91.582,445,101.582,449,91.582,445,95.582" style="stroke: #A80036; stroke-width: 1.0;" />
        <line style="stroke: #A80036; stroke-width: 1.5;" x1="535" x2="535" y1="83.082" y2="101.582" />
        <polygon fill="#A80036" points="531,91.582,535,101.582,539,91.582,535,95.582" style="stroke: #A80036; stroke-width: 1.0;" />
        <line style="stroke: #A80036; stroke-width: 1.5;" x1="286" x2="286" y1="134.2148" y2="154.2148" />
        <polygon fill="#A80036" points="282,144.2148,286,154.2148,290,144.2148,286,148.2148" style="stroke: #A80036; stroke-width: 1.0;" />
        <line style="stroke: #A80036; stroke-width: 1.5;" x1="361" x2="361" y1="134.2148" y2="154.2148" />
        <polygon fill="#A80036" points="357,144.2148,361,154.2148,365,144.2148,361,148.2148" style="stroke: #A80036; stroke-width: 1.0;" />
        <line style="stroke: #A80036; stroke-width: 1.5;" x1="445" x2="445" y1="134.2148" y2="154.2148" />
        <polygon fill="#A80036" points="441,144.2148,445,154.2148,449,144.2148,445,148.2148" style="stroke: #A80036; stroke-width: 1.0;" />
        <line style="stroke: #A80036; stroke-width: 1.5;" x1="535" x2="535" y1="134.2148" y2="154.2148" />
        <polygon fill="#A80036" points="531,144.2148,535,154.2148,539,144.2148,535,148.2148" style="stroke: #A80036; stroke-width: 1.0;" />
        <line style="stroke: #A80036; stroke-width: 1.5;" x1="415" x2="415" y1="61.582" y2="81.582" />
        <polygon fill="#A80036" points="411,71.582,415,81.582,419,71.582,415,75.582" style="stroke: #A80036; stroke-width: 1.0;" />
        <line style="stroke: #A80036; stroke-width: 1.5;" x1="415" x2="415" y1="155.7148" y2="174.2148" />
        <polygon fill="#A80036" points="411,164.2148,415,174.2148,419,164.2148,415,168.2148" style="stroke: #A80036; stroke-width: 1.0;" />
        <line style="stroke: #A80036; stroke-width: 1.5;" x1="415" x2="415" y1="206.8477" y2="226.8477" />
        <polygon fill="#A80036" points="411,216.8477,415,226.8477,419,216.8477,415,220.8477" style="stroke: #A80036; stroke-width: 1.0;" />
        <line style="stroke: #A80036; stroke-width: 1.5;" x1="415" x2="415" y1="259.4805" y2="279.4805" />
        <polygon fill="#A80036" points="411,269.4805,415,279.4805,419,269.4805,415,273.4805" style="stroke: #A80036; stroke-width: 1.0;" />
        <line style="stroke: #A80036; stroke-width: 1.5;" x1="415" x2="415" y1="312.1133" y2="332.1133" />
        <polygon fill="#A80036" points="411,322.1133,415,332.1133,419,322.1133,415,326.1133" style="stroke: #A80036; stroke-width: 1.0;" />
        <line style="stroke: #A80036; stroke-width: 1.5;" x1="415" x2="415" y1="364.7461" y2="384.7461" />
        <polygon fill="#A80036" points="411,374.7461,415,384.7461,419,374.7461,415,378.7461" style="stroke: #A80036; stroke-width: 1.0;" />
        <line style="stroke: #A80036; stroke-width: 1.5;" x1="415" x2="415" y1="417.3789" y2="437.3789" />
        <polygon fill="#A80036" points="411,427.3789,415,437.3789,419,427.3789,415,431.3789" style="stroke: #A80036; stroke-width: 1.0;" />
        <line style="stroke: #A80036; stroke-width: 1.5;" x1="415" x2="415" y1="470.0117" y2="490.0117" />
        <polygon fill="#A80036" points="411,480.0117,415,490.0117,419,480.0117,415,484.0117" style="stroke: #A80036; stroke-width: 1.0;" />
        <line style="stroke: #A80036; stroke-width: 1.5;" x1="415" x2="415" y1="522.6445" y2="542.6445" />
        <polygon fill="#A80036" points="411,532.6445,415,542.6445,419,532.6445,415,536.6445" style="stroke: #A80036; stroke-width: 1.0;" />
        <line style="stroke: #A80036; stroke-width: 1.5;" x1="127" x2="127" y1="647.9102" y2="682.9102" />
        <polygon fill="#A80036" points="123,672.9102,127,682.9102,131,672.9102,127,676.9102" style="stroke: #A80036; stroke-width: 1.0;" />
        <line style="stroke: #A80036; stroke-width: 1.5;" x1="331" x2="331" y1="647.9102" y2="682.9102" />
        <polygon fill="#A80036" points="327,672.9102,331,682.9102,335,672.9102,331,676.9102" style="stroke: #A80036; stroke-width: 1.0;" />
        <line style="stroke: #A80036; stroke-width: 1.5;" x1="451" x2="451" y1="647.9102" y2="682.9102" />
        <polygon fill="#A80036" points="447,672.9102,451,682.9102,455,672.9102,451,676.9102" style="stroke: #A80036; stroke-width: 1.0;" />
        <line style="stroke: #A80036; stroke-width: 1.5;" x1="571" x2="571" y1="647.9102" y2="682.9102" />
        <polygon fill="#A80036" points="567,672.9102,571,682.9102,575,672.9102,571,676.9102" style="stroke: #A80036; stroke-width: 1.0;" />
        <line style="stroke: #A80036; stroke-width: 1.5;" x1="691" x2="691" y1="647.9102" y2="682.9102" />
        <polygon fill="#A80036" points="687,672.9102,691,682.9102,695,672.9102,691,676.9102" style="stroke: #A80036; stroke-width: 1.0;" />
        <line style="stroke: #A80036; stroke-width: 1.5;" x1="127" x2="127" y1="596.7773" y2="615.2773" />
        <polygon fill="#A80036" points="123,605.2773,127,615.2773,131,605.2773,127,609.2773" style="stroke: #A80036; stroke-width: 1.0;" />
        <line style="stroke: #A80036; stroke-width: 1.5;" x1="223" x2="223" y1="596.7773" y2="649.0938" />
        <polygon fill="#A80036" points="219,639.0938,223,649.0938,227,639.0938,223,643.0938" style="stroke: #A80036; stroke-width: 1.0;" />
        <line style="stroke: #A80036; stroke-width: 1.5;" x1="331" x2="331" y1="596.7773" y2="615.2773" />
        <polygon fill="#A80036" points="327,605.2773,331,615.2773,335,605.2773,331,609.2773" style="stroke: #A80036; stroke-width: 1.0;" />
        <line style="stroke: #A80036; stroke-width: 1.5;" x1="451" x2="451" y1="596.7773" y2="615.2773" />
        <polygon fill="#A80036" points="447,605.2773,451,615.2773,455,605.2773,451,609.2773" style="stroke: #A80036; stroke-width: 1.0;" />
        <line style="stroke: #A80036; stroke-width: 1.5;" x1="571" x2="571" y1="596.7773" y2="615.2773" />
        <polygon fill="#A80036" points="567,605.2773,571,615.2773,575,605.2773,571,609.2773" style="stroke: #A80036; stroke-width: 1.0;" />
        <line style="stroke: #A80036; stroke-width: 1.5;" x1="691" x2="691" y1="596.7773" y2="615.2773" />
        <polygon fill="#A80036" points="687,605.2773,691,615.2773,695,605.2773,691,609.2773" style="stroke: #A80036; stroke-width: 1.0;" />
        <line style="stroke: #A80036; stroke-width: 1.5;" x1="127" x2="127" y1="715.543" y2="735.543" />
        <polygon fill="#A80036" points="123,725.543,127,735.543,131,725.543,127,729.543" style="stroke: #A80036; stroke-width: 1.0;" />
        <line style="stroke: #A80036; stroke-width: 1.5;" x1="223" x2="223" y1="681.7266" y2="735.543" />
        <polygon fill="#A80036" points="219,725.543,223,735.543,227,725.543,223,729.543" style="stroke: #A80036; stroke-width: 1.0;" />
        <line style="stroke: #A80036; stroke-width: 1.5;" x1="331" x2="331" y1="715.543" y2="735.543" />
        <polygon fill="#A80036" points="327,725.543,331,735.543,335,725.543,331,729.543" style="stroke: #A80036; stroke-width: 1.0;" />
        <line style="stroke: #A80036; stroke-width: 1.5;" x1="451" x2="451" y1="715.543" y2="735.543" />
        <polygon fill="#A80036" points="447,725.543,451,735.543,455,725.543,451,729.543" style="stroke: #A80036; stroke-width: 1.0;" />
        <line style="stroke: #A80036; stroke-width: 1.5;" x1="571" x2="571" y1="715.543" y2="735.543" />
        <polygon fill="#A80036" points="567,725.543,571,735.543,575,725.543,571,729.543" style="stroke: #A80036; stroke-width: 1.0;" />
        <line style="stroke: #A80036; stroke-width: 1.5;" x1="691" x2="691" y1="715.543" y2="735.543" />
        <polygon fill="#A80036" points="687,725.543,691,735.543,695,725.543,691,729.543" style="stroke: #A80036; stroke-width: 1.0;" />
        <line style="stroke: #A80036; stroke-width: 1.5;" x1="415" x2="415" y1="575.2773" y2="595.2773" />
        <polygon fill="#A80036" points="411,585.2773,415,595.2773,419,585.2773,415,589.2773" style="stroke: #A80036; stroke-width: 1.0;" />
        <line style="stroke: #A80036; stroke-width: 1.5;" x1="415" x2="415" y1="737.043" y2="755.543" />
        <polygon fill="#A80036" points="411,745.543,415,755.543,419,745.543,415,749.543" style="stroke: #A80036; stroke-width: 1.0;" />
        <line style="stroke: #A80036; stroke-width: 1.5;" x1="122" x2="122" y1="829.6758" y2="848.1758" />
        <polygon fill="#A80036" points="118,838.1758,122,848.1758,126,838.1758,122,842.1758" style="stroke: #A80036; stroke-width: 1.0;" />
        <line style="stroke: #A80036; stroke-width: 1.5;" x1="248" x2="248" y1="829.6758" y2="848.1758" />
        <polygon fill="#A80036" points="244,838.1758,248,848.1758,252,838.1758,248,842.1758" style="stroke: #A80036; stroke-width: 1.0;" />
        <line style="stroke: #A80036; stroke-width: 1.5;" x1="122" x2="122" y1="880.8086" y2="900.8086" />
        <polygon fill="#A80036" points="118,890.8086,122,900.8086,126,890.8086,122,894.8086" style="stroke: #A80036; stroke-width: 1.0;" />
        <line style="stroke: #A80036; stroke-width: 1.5;" x1="248" x2="248" y1="880.8086" y2="900.8086" />
        <polygon fill="#A80036" points="244,890.8086,248,900.8086,252,890.8086,248,894.8086" style="stroke: #A80036; stroke-width: 1.0;" />
        <line style="stroke: #A80036; stroke-width: 1.5;" x1="179" x2="179" y1="902.3086" y2="922.3086" />
        <polygon fill="#A80036" points="175,912.3086,179,922.3086,183,912.3086,179,916.3086" style="stroke: #A80036; stroke-width: 1.0;" />
        <line style="stroke: #A80036; stroke-width: 1.5;" x1="227" x2="227" y1="1044.0742" y2="1079.0742" />
        <polygon fill="#A80036" points="223,1069.0742,227,1079.0742,231,1069.0742,227,1073.0742" style="stroke: #A80036; stroke-width: 1.0;" />
        <line style="stroke: #A80036; stroke-width: 1.5;" x1="104" x2="104" y1="991.4414" y2="1045.2578" />
        <polygon fill="#A80036" points="100,1035.2578,104,1045.2578,108,1035.2578,104,1039.2578" style="stroke: #A80036; stroke-width: 1.0;" />
        <line style="stroke: #A80036; stroke-width: 1.5;" x1="227" x2="227" y1="991.4414" y2="1011.4414" />
        <polygon fill="#A80036" points="223,1001.4414,227,1011.4414,231,1001.4414,227,1005.4414" style="stroke: #A80036; stroke-width: 1.0;" />
        <line style="stroke: #A80036; stroke-width: 1.5;" x1="104" x2="104" y1="1077.8906" y2="1131.707" />
        <polygon fill="#A80036" points="100,1121.707,104,1131.707,108,1121.707,104,1125.707" style="stroke: #A80036; stroke-width: 1.0;" />
        <line style="stroke: #A80036; stroke-width: 1.5;" x1="227" x2="227" y1="1111.707" y2="1131.707" />
        <polygon fill="#A80036" points="223,1121.707,227,1131.707,231,1121.707,227,1125.707" style="stroke: #A80036; stroke-width: 1.0;" />
        <line style="stroke: #A80036; stroke-width: 1.5;" x1="179" x2="179" y1="954.9414" y2="989.9414" />
        <polygon fill="#A80036" points="175,979.9414,179,989.9414,183,979.9414,179,983.9414" style="stroke: #A80036; stroke-width: 1.0;" />
        <line style="stroke: #A80036; stroke-width: 1.5;" x1="179" x2="179" y1="1133.207" y2="1168.207" />
        <polygon fill="#A80036" points="175,1158.207,179,1168.207,183,1158.207,179,1162.207" style="stroke: #A80036; stroke-width: 1.0;" />
        <line style="stroke: #A80036; stroke-width: 1.5;" x1="179" x2="179" y1="1200.8398" y2="1235.8398" />
        <polygon fill="#A80036" points="175,1225.8398,179,1235.8398,183,1225.8398,179,1229.8398" style="stroke: #A80036; stroke-width: 1.0;" />
        <line style="stroke: #A80036; stroke-width: 1.5;" x1="89" x2="89" y1="1391.4219" y2="1426.4219" />
        <polygon fill="#A80036" points="85,1416.4219,89,1426.4219,93,1416.4219,89,1420.4219" style="stroke: #A80036; stroke-width: 1.0;" />
        <line style="stroke: #A80036; stroke-width: 1.5;" x1="272" x2="272" y1="1357.6055" y2="1392.6055" />
        <polygon fill="#A80036" points="268,1382.6055,272,1392.6055,276,1382.6055,272,1386.6055" style="stroke: #A80036; stroke-width: 1.0;" />
        <line style="stroke: #A80036; stroke-width: 1.5;" x1="272" x2="272" y1="1425.2383" y2="1460.2383" />
        <polygon fill="#A80036" points="268,1450.2383,272,1460.2383,276,1450.2383,272,1454.2383" style="stroke: #A80036; stroke-width: 1.0;" />
        <line style="stroke: #A80036; stroke-width: 1.5;" x1="89" x2="89" y1="1304.9727" y2="1358.7891" />
        <polygon fill="#A80036" points="85,1348.7891,89,1358.7891,93,1348.7891,89,1352.7891" style="stroke: #A80036; stroke-width: 1.0;" />
        <line style="stroke: #A80036; stroke-width: 1.5;" x1="272" x2="272" y1="1304.9727" y2="1324.9727" />
        <polygon fill="#A80036" points="268,1314.9727,272,1324.9727,276,1314.9727,272,1318.9727" style="stroke: #A80036; stroke-width: 1.0;" />
        <line style="stroke: #A80036; stroke-width: 1.5;" x1="89" x2="89" y1="1459.0547" y2="1512.8711" />
        <polygon fill="#A80036" points="85,1502.8711,89,1512.8711,93,1502.8711,89,1506.8711" style="stroke: #A80036; stroke-width: 1.0;" />
        <line style="stroke: #A80036; stroke-width: 1.5;" x1="272" x2="272" y1="1492.8711" y2="1512.8711" />
        <polygon fill="#A80036" points="268,1502.8711,272,1512.8711,276,1502.8711,272,1506.8711" style="stroke: #A80036; stroke-width: 1.0;" />
        <line style="stroke: #A80036; stroke-width: 1.5;" x1="179" x2="179" y1="1268.4727" y2="1303.4727" />
        <polygon fill="#A80036" points="175,1293.4727,179,1303.4727,183,1293.4727,179,1297.4727" style="stroke: #A80036; stroke-width: 1.0;" />
        <line style="stroke: #A80036; stroke-width: 1.5;" x1="457" x2="457" y1="976.4414" y2="1011.4414" />
        <polygon fill="#A80036" points="453,1001.4414,457,1011.4414,461,1001.4414,457,1005.4414" style="stroke: #A80036; stroke-width: 1.0;" />
        <line style="stroke: #A80036; stroke-width: 1.5;" x1="457" x2="457" y1="1044.0742" y2="1079.0742" />
        <polygon fill="#A80036" points="453,1069.0742,457,1079.0742,461,1069.0742,457,1073.0742" style="stroke: #A80036; stroke-width: 1.0;" />
        <line style="stroke: #A80036; stroke-width: 1.5;" x1="457" x2="457" y1="1111.707" y2="1146.707" />
        <polygon fill="#A80036" points="453,1136.707,457,1146.707,461,1136.707,457,1140.707" style="stroke: #A80036; stroke-width: 1.0;" />
        <line style="stroke: #A80036; stroke-width: 1.5;" x1="457" x2="457" y1="1179.3398" y2="1214.3398" />
        <polygon fill="#A80036" points="453,1204.3398,457,1214.3398,461,1204.3398,457,1208.3398" style="stroke: #A80036; stroke-width: 1.0;" />
        <line style="stroke: #A80036; stroke-width: 1.5;" x1="457" x2="457" y1="1246.9727" y2="1281.9727" />
        <polygon fill="#A80036" points="453,1271.9727,457,1281.9727,461,1271.9727,457,1275.9727" style="stroke: #A80036; stroke-width: 1.0;" />
        <line style="stroke: #A80036; stroke-width: 1.5;" x1="457" x2="457" y1="1314.6055" y2="1349.6055" />
        <polygon fill="#A80036" points="453,1339.6055,457,1349.6055,461,1339.6055,457,1343.6055" style="stroke: #A80036; stroke-width: 1.0;" />
        <line style="stroke: #A80036; stroke-width: 1.5;" x1="624" x2="624" y1="902.3086" y2="922.3086" />
        <polygon fill="#A80036" points="620,912.3086,624,922.3086,628,912.3086,624,916.3086" style="stroke: #A80036; stroke-width: 1.0;" />
        <line style="stroke: #A80036; stroke-width: 1.5;" x1="585" x2="585" y1="991.4414" y2="1011.4414" />
        <polygon fill="#A80036" points="581,1001.4414,585,1011.4414,589,1001.4414,585,1005.4414" style="stroke: #A80036; stroke-width: 1.0;" />
        <line style="stroke: #A80036; stroke-width: 1.5;" x1="657" x2="657" y1="991.4414" y2="1011.4414" />
        <polygon fill="#A80036" points="653,1001.4414,657,1011.4414,661,1001.4414,657,1005.4414" style="stroke: #A80036; stroke-width: 1.0;" />
        <line style="stroke: #A80036; stroke-width: 1.5;" x1="585" x2="585" y1="1044.0742" y2="1064.0742" />
        <polygon fill="#A80036" points="581,1054.0742,585,1064.0742,589,1054.0742,585,1058.0742" style="stroke: #A80036; stroke-width: 1.0;" />
        <line style="stroke: #A80036; stroke-width: 1.5;" x1="657" x2="657" y1="1044.0742" y2="1064.0742" />
        <polygon fill="#A80036" points="653,1054.0742,657,1064.0742,661,1054.0742,657,1058.0742" style="stroke: #A80036; stroke-width: 1.0;" />
        <line style="stroke: #A80036; stroke-width: 1.5;" x1="624" x2="624" y1="954.9414" y2="989.9414" />
        <polygon fill="#A80036" points="620,979.9414,624,989.9414,628,979.9414,624,983.9414" style="stroke: #A80036; stroke-width: 1.0;" />
        <line style="stroke: #A80036; stroke-width: 1.5;" x1="624" x2="624" y1="1065.5742" y2="1100.5742" />
        <polygon fill="#A80036" points="620,1090.5742,624,1100.5742,628,1090.5742,624,1094.5742" style="stroke: #A80036; stroke-width: 1.0;" />
        <line style="stroke: #A80036; stroke-width: 1.5;" x1="624" x2="624" y1="1133.207" y2="1168.207" />
        <polygon fill="#A80036" points="620,1158.207,624,1168.207,628,1158.207,624,1162.207" style="stroke: #A80036; stroke-width: 1.0;" />
        <line style="stroke: #A80036; stroke-width: 1.5;" x1="624" x2="624" y1="1200.8398" y2="1235.8398" />
        <polygon fill="#A80036" points="620,1225.8398,624,1235.8398,628,1225.8398,624,1229.8398" style="stroke: #A80036; stroke-width: 1.0;" />
        <line style="stroke: #A80036; stroke-width: 1.5;" x1="624" x2="624" y1="1268.4727" y2="1303.4727" />
        <polygon fill="#A80036" points="620,1293.4727,624,1303.4727,628,1293.4727,624,1297.4727" style="stroke: #A80036; stroke-width: 1.0;" />
        <line style="stroke: #A80036; stroke-width: 1.5;" x1="624" x2="624" y1="1336.1055" y2="1371.1055" />
        <polygon fill="#A80036" points="620,1361.1055,624,1371.1055,628,1361.1055,624,1365.1055" style="stroke: #A80036; stroke-width: 1.0;" />
        <line style="stroke: #A80036; stroke-width: 1.5;" x1="624" x2="624" y1="1403.7383" y2="1438.7383" />
        <polygon fill="#A80036" points="620,1428.7383,624,1438.7383,628,1428.7383,624,1432.7383" style="stroke: #A80036; stroke-width: 1.0;" />
        <line style="stroke: #A80036; stroke-width: 1.5;" x1="779" x2="779" y1="1010.2578" y2="1045.2578" />
        <polygon fill="#A80036" points="775,1035.2578,779,1045.2578,783,1035.2578,779,1039.2578" style="stroke: #A80036; stroke-width: 1.0;" />
        <line style="stroke: #A80036; stroke-width: 1.5;" x1="779" x2="779" y1="1077.8906" y2="1112.8906" />
        <polygon fill="#A80036" points="775,1102.8906,779,1112.8906,783,1102.8906,779,1106.8906" style="stroke: #A80036; stroke-width: 1.0;" />
        <line style="stroke: #A80036; stroke-width: 1.5;" x1="779" x2="779" y1="1145.5234" y2="1180.5234" />
        <polygon fill="#A80036" points="775,1170.5234,779,1180.5234,783,1170.5234,779,1174.5234" style="stroke: #A80036; stroke-width: 1.0;" />
        <line style="stroke: #A80036; stroke-width: 1.5;" x1="779" x2="779" y1="1213.1563" y2="1248.1563" />
        <polygon fill="#A80036" points="775,1238.1563,779,1248.1563,783,1238.1563,779,1242.1563" style="stroke: #A80036; stroke-width: 1.0;" />
        <line style="stroke: #A80036; stroke-width: 1.5;" x1="779" x2="779" y1="1280.7891" y2="1315.7891" />
        <polygon fill="#A80036" points="775,1305.7891,779,1315.7891,783,1305.7891,779,1309.7891" style="stroke: #A80036; stroke-width: 1.0;" />
        <line style="stroke: #A80036; stroke-width: 1.5;" x1="179" x2="179" y1="809.6758" y2="828.1758" />
        <polygon fill="#A80036" points="175,818.1758,179,828.1758,183,818.1758,179,822.1758" style="stroke: #A80036; stroke-width: 1.0;" />
        <line style="stroke: #A80036; stroke-width: 1.5;" x1="457" x2="457" y1="809.6758" y2="943.8086" />
        <polygon fill="#A80036" points="453,933.8086,457,943.8086,461,933.8086,457,937.8086" style="stroke: #A80036; stroke-width: 1.0;" />
        <line style="stroke: #A80036; stroke-width: 1.5;" x1="624" x2="624" y1="809.6758" y2="869.6758" />
        <polygon fill="#A80036" points="620,859.6758,624,869.6758,628,859.6758,624,863.6758" style="stroke: #A80036; stroke-width: 1.0;" />
        <line style="stroke: #A80036; stroke-width: 1.5;" x1="779" x2="779" y1="809.6758" y2="977.625" />
        <polygon fill="#A80036" points="775,967.625,779,977.625,783,967.625,779,971.625" style="stroke: #A80036; stroke-width: 1.0;" />
        <line style="stroke: #A80036; stroke-width: 1.5;" x1="179" x2="179" y1="1514.3711" y2="1532.8711" />
        <polygon fill="#A80036" points="175,1522.8711,179,1532.8711,183,1522.8711,179,1526.8711" style="stroke: #A80036; stroke-width: 1.0;" />
        <line style="stroke: #A80036; stroke-width: 1.5;" x1="457" x2="457" y1="1382.2383" y2="1532.8711" />
        <polygon fill="#A80036" points="453,1522.8711,457,1532.8711,461,1522.8711,457,1526.8711" style="stroke: #A80036; stroke-width: 1.0;" />
        <line style="stroke: #A80036; stroke-width: 1.5;" x1="624" x2="624" y1="1471.3711" y2="1532.8711" />
        <polygon fill="#A80036" points="620,1522.8711,624,1532.8711,628,1522.8711,624,1526.8711" style="stroke: #A80036; stroke-width: 1.0;" />
        <line style="stroke: #A80036; stroke-width: 1.5;" x1="779" x2="779" y1="1348.4219" y2="1532.8711" />
        <polygon fill="#A80036" points="775,1522.8711,779,1532.8711,783,1522.8711,779,1526.8711" style="stroke: #A80036; stroke-width: 1.0;" />
        <line style="stroke: #A80036; stroke-width: 1.5;" x1="415" x2="415" y1="788.1758" y2="808.1758" />
        <polygon fill="#A80036" points="411,798.1758,415,808.1758,419,798.1758,415,802.1758" style="stroke: #A80036; stroke-width: 1.0;" />
        <line style="stroke: #A80036; stroke-width: 1.5;" x1="415" x2="415" y1="1534.3711" y2="1552.8711" />
        <polygon fill="#A80036" points="411,1542.8711,415,1552.8711,419,1542.8711,415,1546.8711" style="stroke: #A80036; stroke-width: 1.0;" />
        <line style="stroke: #A80036; stroke-width: 1.5;" x1="415" x2="415" y1="1585.5039" y2="1605.5039" />
        <polygon fill="#A80036" points="411,1595.5039,415,1605.5039,419,1595.5039,415,1599.5039" style="stroke: #A80036; stroke-width: 1.0;" />
        <!--
@startuml
title:APIView
:Request;
split
  : get;
split again
  : post;
split again
  : update;
split again
  : delete;
end split
: wsgi;
:url路由;

: 继承自APIView的类视图;
: as_view;
note right
  继承自view
end note
:check_arguement;
:dispatch;
note left
  调用APIView自己的
end note
:initialize_request;
floating note right:重新封装request
:initial;
split
  :检查后缀;
  :预设;
split again
  :内容决策;
split again
  :版本决策;
  :检查版本更新;
split again
  :执行认证;
  :重写认证规则;
split again
  :检查权限;
  :重写权限规则;
split again
  :节流;
  :定义节流规则;
end split
:分发;
split
  split
  #yellow :RetrieveAPIView;
  split again
  #yellow :ListAPIView;
  end split

  :get;

  split
    :retrieve;

  split again
  :list;

  :paginate_queryset;
  end split
  :get object;
  :get_queryset;

  split
  :filter_queryset;
  :check_object_permission;

  split again
  :get_serializer;
  :get_serializer_class;
  :get_serializer_context;
  end split
split again
  #yellow:CreateAPIView;
  :post;

  :create;
  :get_serializer;
  :perform_create;
  :save;
  :get_success_headers;
split again
  #yellow:UpdateAPIView;
  :update;

  split
  :put;
  split again
  :patch;
  end split

  :udpate;
  :get_object;
  :get_serializer;
  :is_valid;
  :perform_update;
  :save;
split again
  #yellow:DestroyAPIView;
  :delete;
  :destory;
  :get_object;
  :perform_destory;
  :delete;
end split

:Response;
: view中的业务逻辑;

@enduml

PlantUML version 1.2019.06(Sat May 25 01:10:25 CST 2019)
(GPL source distribution)
Java Runtime: Java(TM) SE Runtime Environment
JVM: Java HotSpot(TM) 64-Bit Server VM
Java Version: 1.8.0_202-b08
Operating System: Linux
OS Version: 4.18.0-21-generic
Default Encoding: UTF-8
Language: zh
Country: CN
-->
    </g>
</svg>